<?xml version="1.0" encoding="UTF-8"?>
<svg xmlns="http://www.w3.org/2000/svg" version="1.1" viewBox="0 0 218 144.7">
  <defs>
    <style>
      .cls-1 {
        fill: #00a651;
      }

      .cls-2 {
        fill: #006838;
      }
    </style>
  </defs>
  <!-- Generator: Adobe Illustrator 28.7.4, SVG Export Plug-In . SVG Version: 1.2.0 Build 166)  -->
  <g>
    <g id="Layer_1">
      <g>
        <polygon class="cls-1"
          points="39.1 101.6 36.8 101.6 25.3 113.3 25.3 101.6 23.3 101.6 23.3 121 25.3 121 25.3 115.9 29.3 111.9 37.3 121 39.7 121 30.7 110.4 39.1 101.6" />
        <path class="cls-1"
          d="M40.8,121.6h-3.8l-7.7-8.9-3.4,3.5v5.4h-3.1v-20.5h3.1v11l10.7-11h3.8l-8.9,9.4,9.4,11.2ZM37.5,120.5h1.1l-8.6-10.1,7.9-8.3h-.9l-12.2,12.5v-12.5h-1v18.4h1v-4.8l4.5-4.6,8.2,9.4Z" />
        <path class="cls-1"
          d="M53.2,107c-.9-.5-1.9-.7-3.1-.7s-2.6.3-3.6.9c-.8.5-1.4,1-1.8,1.8v-8.6h-2v20.7h2v-7.7c0-1.1.2-2.1.6-2.9.4-.8,1-1.4,1.8-1.8.8-.4,1.7-.6,2.7-.6s2.5.4,3.2,1.2c.8.8,1.2,2,1.2,3.5v8.3h2v-8.5c0-1.4-.3-2.6-.8-3.5-.5-.9-1.2-1.6-2.1-2.1" />
        <path class="cls-1"
          d="M56.6,121.6h-3v-8.8c0-1.4-.3-2.4-1-3.1-.7-.7-1.6-1-2.9-1s-1.8.2-2.5.6c-.7.4-1.2.9-1.6,1.6-.4.7-.6,1.6-.6,2.6v8.2h-3v-21.7h3v7.6c.3-.3.7-.5,1-.8,1.1-.6,2.4-1,3.9-1s2.4.2,3.4.7c1,.5,1.8,1.3,2.3,2.3.6,1,.8,2.3.8,3.8v9ZM54.7,120.5h.9v-8c0-1.3-.2-2.4-.7-3.3-.5-.8-1.1-1.4-1.9-1.9-.8-.4-1.8-.6-2.9-.6s-2.4.3-3.4.8c-.7.4-1.3.9-1.7,1.6l-1,1.5v-9.9h-.9v19.6h.9v-7.2c0-1.2.2-2.2.7-3.1.5-.9,1.1-1.6,2-2,.8-.5,1.8-.7,3-.7s2.7.5,3.6,1.3c.9.9,1.3,2.2,1.3,3.9v7.8Z" />
        <rect class="cls-1" x="61.4" y="100.4" width="2" height="20.7" />
        <path class="cls-1" d="M63.9,121.6h-3v-21.7h3v21.7ZM62,120.5h.9v-19.6h-.9v19.6Z" />
        <path class="cls-1"
          d="M74.1,106.3c-1.2,0-2.2.2-3.3.5-1,.3-1.9.8-2.7,1.5l.9,1.5c.6-.5,1.3-.9,2.2-1.3.9-.3,1.8-.5,2.7-.5,1.4,0,2.4.3,3.1,1,.7.7,1,1.6,1,2.9v.9h-4.6c-1.4,0-2.5.2-3.3.6s-1.4.9-1.8,1.5c-.4.6-.5,1.3-.5,2.1s.2,1.6.6,2.2c.4.6,1,1.1,1.8,1.5.8.4,1.8.5,2.9.5s2.5-.3,3.5-.9c.7-.4,1.2-.9,1.6-1.6v2.3h1.9v-9.1c0-1.9-.5-3.3-1.5-4.3-1-.9-2.5-1.4-4.4-1.4M76.2,118.9c-.8.5-1.8.8-2.9.8s-2.1-.2-2.7-.8c-.6-.5-1-1.2-1-2s.3-1.4.8-1.9c.5-.5,1.5-.8,2.9-.8h4.6v2.4c-.4,1-1,1.7-1.8,2.2" />
        <path class="cls-1"
          d="M73,121.7c-1.2,0-2.2-.2-3.1-.6-.9-.4-1.6-1-2.1-1.7-.5-.7-.7-1.6-.7-2.5s.2-1.6.6-2.3c.4-.7,1.1-1.3,2-1.7.9-.4,2.1-.6,3.5-.6h4.1v-.4c0-1.1-.3-1.9-.9-2.5-.6-.6-1.5-.9-2.7-.9s-1.7.1-2.5.4c-.8.3-1.5.7-2,1.2l-.5.4-1.4-2.4.3-.3c.8-.7,1.7-1.2,2.8-1.6,1.1-.4,2.3-.5,3.5-.5,2,0,3.6.5,4.7,1.5,1.1,1,1.7,2.6,1.7,4.7v9.6h-2.9v-1.4c-.2.2-.5.4-.8.6-1,.6-2.3.9-3.7.9M73.4,113.3c-1.3,0-2.4.2-3.1.5-.7.3-1.2.8-1.5,1.3-.3.5-.5,1.1-.5,1.8s.2,1.4.6,1.9c.4.6.9,1,1.6,1.3.7.3,1.6.5,2.6.5s2.4-.3,3.2-.8c.6-.4,1.1-.8,1.4-1.4l1-1.6v3.7h.8v-8.5c0-1.7-.5-3.1-1.4-3.9-.9-.8-2.3-1.3-4-1.3s-2.1.2-3.1.5c-.8.3-1.5.6-2.1,1.1l.3.6c.5-.4,1.2-.7,1.8-1,.9-.3,1.9-.5,2.9-.5,1.5,0,2.7.4,3.5,1.1.8.8,1.2,1.9,1.2,3.2v1.4h-5.2ZM73.4,120.2c-1.3,0-2.3-.3-3.1-.9-.8-.6-1.2-1.4-1.2-2.4s.3-1.7,1-2.3c.7-.6,1.7-.9,3.3-.9h5.1v3h0c-.4,1.2-1.1,2-2,2.6-.9.6-2,.8-3.2.8M73.4,114.8c-1.2,0-2.1.2-2.6.6-.4.4-.6.9-.6,1.5s.3,1.2.8,1.6c.6.4,1.4.6,2.4.6s1.9-.2,2.6-.7c.7-.4,1.2-1,1.5-1.9v-1.8h-4.1Z" />
        <path class="cls-1"
          d="M93.4,113.9c-.6-.3-1.2-.5-1.9-.6-.7-.2-1.4-.3-2-.4-.7-.1-1.3-.3-1.9-.4-.6-.2-1-.4-1.4-.7-.3-.3-.5-.8-.5-1.3s.3-1.3.9-1.7c.6-.5,1.6-.7,2.9-.7s1.5,0,2.2.3c.7.2,1.4.5,2.1,1l.9-1.6c-.6-.4-1.4-.7-2.3-1-.9-.2-1.9-.4-2.8-.4s-2.3.2-3.2.5c-.9.4-1.5.9-2,1.5-.4.6-.7,1.3-.7,2.1s.2,1.5.5,2c.3.5.8.9,1.3,1.2.6.3,1.2.5,1.8.7.7.1,1.4.3,2,.4.7.1,1.3.2,1.9.4.6.2,1,.4,1.3.7.3.3.5.7.5,1.3s-.3,1.3-.9,1.7c-.6.4-1.6.7-3,.7s-2-.2-2.9-.5c-.9-.3-1.7-.7-2.3-1.2l-.9,1.6c.6.5,1.5,1,2.5,1.3,1.1.3,2.2.5,3.4.5s2.4-.2,3.3-.5c.9-.3,1.6-.8,2.1-1.4.5-.6.7-1.4.7-2.2s-.2-1.4-.5-1.9-.8-.9-1.4-1.1" />
        <path class="cls-1"
          d="M89.3,121.7c-1.3,0-2.5-.2-3.6-.5-1.1-.4-2-.8-2.7-1.4l-.3-.3,1.4-2.5.5.4c.5.4,1.3.8,2.1,1.1.9.3,1.8.5,2.7.5s2.2-.2,2.7-.6c.5-.3.7-.8.7-1.3s-.1-.7-.3-.9c-.3-.3-.7-.4-1.1-.6-.5-.2-1.1-.3-1.8-.4-.7-.1-1.4-.2-2.1-.4-.7-.2-1.4-.4-2-.7-.6-.3-1.2-.8-1.5-1.4-.4-.6-.6-1.4-.6-2.3s.3-1.7.8-2.4c.5-.7,1.2-1.3,2.2-1.7.9-.4,2.1-.6,3.4-.6s2,.1,3,.4c1,.3,1.8.6,2.5,1.1l.4.3-1.4,2.5-.5-.3c-.6-.4-1.2-.7-1.9-.9-.7-.2-1.4-.3-2.1-.3-1.2,0-2.1.2-2.6.6-.5.4-.7.8-.7,1.3s.1.7.3.9c.3.3.7.5,1.2.6.5.2,1.1.3,1.8.4.7.1,1.4.2,2.1.4.7.2,1.4.4,2,.7h0c.6.3,1.2.8,1.6,1.3.4.6.6,1.3.6,2.2s-.3,1.8-.8,2.5c-.5.7-1.3,1.2-2.3,1.6-1,.4-2.1.5-3.5.5M84,119.2c.5.4,1.2.7,2,.9,1,.3,2.1.5,3.3.5s2.2-.2,3.1-.5c.8-.3,1.4-.7,1.8-1.3.4-.5.6-1.2.6-1.9s-.1-1.2-.4-1.6c-.3-.4-.7-.7-1.2-1-.5-.3-1.1-.5-1.8-.6-.7-.2-1.3-.3-2-.4-.7-.1-1.4-.3-1.9-.4-.6-.2-1.2-.5-1.6-.9-.5-.4-.7-1-.7-1.7s.4-1.6,1.1-2.2c.7-.5,1.8-.8,3.2-.8s1.6.1,2.4.3c.6.2,1.2.4,1.8.7l.4-.6c-.5-.3-1.1-.5-1.8-.7-.9-.2-1.8-.4-2.7-.4s-2.2.2-3,.5c-.8.3-1.3.8-1.7,1.3-.4.5-.6,1.1-.6,1.8s.1,1.3.4,1.7c.3.4.7.8,1.2,1,.5.3,1.1.5,1.7.6.7.1,1.3.3,2,.4.7.1,1.3.3,1.9.4.6.2,1.2.5,1.6.8.5.4.7,1,.7,1.7s-.4,1.6-1.1,2.2c-.7.5-1.8.8-3.3.8s-2.1-.2-3.1-.5c-.7-.3-1.4-.6-1.9-.9l-.4.7Z" />
        <path class="cls-1"
          d="M108.4,115.1c-.3-.5-.8-.9-1.4-1.1-.6-.3-1.2-.5-1.9-.6-.7-.2-1.4-.3-2-.4-.7-.1-1.3-.3-1.9-.4-.6-.2-1-.4-1.4-.7-.3-.3-.5-.8-.5-1.3s.3-1.3.9-1.7c.6-.5,1.6-.7,2.9-.7s1.5,0,2.2.3c.7.2,1.4.5,2.1,1l.9-1.6c-.6-.4-1.4-.7-2.3-1-.9-.2-1.9-.4-2.8-.4s-2.3.2-3.2.5c-.9.4-1.5.9-2,1.5-.4.6-.7,1.3-.7,2.1s.2,1.5.5,2c.3.5.8.9,1.3,1.2.6.3,1.2.5,1.8.7s1.4.3,2,.4c.7.1,1.3.2,1.9.4.6.2,1,.4,1.3.7.3.3.5.7.5,1.3s-.3,1.3-.9,1.7c-.6.4-1.6.7-3,.7s-2-.2-2.9-.5c-.9-.3-1.7-.7-2.3-1.2l-.9,1.6c.6.5,1.5,1,2.5,1.3,1.1.3,2.2.5,3.4.5s2.4-.2,3.3-.5c.9-.3,1.6-.8,2.1-1.4.5-.6.7-1.4.7-2.2s-.2-1.4-.5-1.9" />
        <path class="cls-1"
          d="M102.9,121.7c-1.3,0-2.5-.2-3.6-.5-1.1-.4-2-.8-2.7-1.4l-.3-.3,1.4-2.5.5.4c.5.4,1.3.8,2.1,1.1.9.3,1.8.5,2.7.5s2.2-.2,2.7-.6c.5-.3.7-.8.7-1.3s-.1-.7-.3-.9c-.3-.3-.7-.4-1.1-.6-.5-.2-1.1-.3-1.8-.4-.7-.1-1.4-.2-2.1-.4-.7-.2-1.4-.4-2-.7-.6-.3-1.2-.8-1.5-1.4-.4-.6-.6-1.4-.6-2.3s.3-1.7.8-2.4c.5-.7,1.2-1.3,2.2-1.7.9-.4,2.1-.6,3.4-.6s2,.1,3,.4c1,.3,1.8.6,2.5,1.1l.4.3-1.4,2.5-.5-.3c-.6-.4-1.2-.7-1.9-.9-.7-.2-1.4-.3-2.1-.3-1.2,0-2.1.2-2.6.6-.5.4-.7.8-.7,1.3s.1.7.3.9c.3.3.7.5,1.2.6.5.2,1.1.3,1.8.4.7.1,1.4.2,2.1.4.7.2,1.4.4,2,.7.6.3,1.2.8,1.6,1.3.4.6.6,1.3.6,2.2s-.3,1.8-.8,2.5c-.5.7-1.3,1.2-2.3,1.6-1,.4-2.1.5-3.5.5M97.6,119.2c.5.4,1.2.7,2,.9,1,.3,2.1.5,3.3.5s2.2-.2,3.1-.5c.8-.3,1.4-.7,1.8-1.3.4-.5.6-1.2.6-1.9s-.1-1.2-.4-1.6c-.3-.4-.7-.7-1.2-1-.5-.3-1.1-.5-1.8-.6-.7-.2-1.3-.3-2-.4-.7-.1-1.4-.3-1.9-.4-.6-.2-1.2-.5-1.6-.9-.5-.4-.7-1-.7-1.7s.4-1.6,1.1-2.2c.7-.5,1.8-.8,3.2-.8s1.6.1,2.4.3c.6.2,1.2.4,1.8.7l.4-.6c-.5-.3-1.1-.5-1.8-.7-.9-.2-1.8-.4-2.7-.4s-2.2.2-3,.5c-.8.3-1.4.8-1.7,1.3-.4.5-.6,1.1-.6,1.8s.1,1.3.4,1.7c.3.4.7.8,1.2,1,.5.3,1.1.5,1.7.6.7.1,1.3.3,2,.4.7.1,1.3.3,1.9.4.6.2,1.2.5,1.6.8.5.4.7,1,.7,1.7s-.4,1.6-1.1,2.2c-.7.5-1.8.8-3.3.8s-2.1-.2-3.1-.5c-.7-.3-1.4-.6-1.9-.9l-.4.7Z" />
        <path class="cls-1"
          d="M122.6,106.4l-5.5,12.4-5.5-12.4h-2.1l6.5,14.6-.6,1.4c-.4.9-.9,1.5-1.4,1.9-.5.4-1,.5-1.7.5s-1,0-1.5-.3c-.4-.2-.8-.5-1.2-.8l-.9,1.5c.4.4,1,.8,1.6,1,.6.2,1.3.3,2,.3s1.3-.1,1.9-.3c.6-.2,1.1-.6,1.6-1.2.5-.6.9-1.3,1.3-2.3l7.3-16.4h-1.9Z" />
        <path class="cls-1"
          d="M112.3,127.1c-.7,0-1.5-.1-2.1-.4-.7-.2-1.3-.6-1.8-1.1l-.3-.3,1.5-2.4.5.4c.3.3.7.6,1.1.7.4.2.8.2,1.2.2s1-.1,1.4-.4c.4-.3.8-.9,1.2-1.7l.5-1.2-6.8-15.1h3.2l5.2,11.6,5.2-11.6h3.1l-7.7,17.1c-.4,1-.9,1.8-1.4,2.4-.5.6-1.1,1.1-1.8,1.3-.6.3-1.3.4-2.1.4M109.5,125.2c.3.3.7.5,1.1.6,1.1.4,2.5.4,3.5,0,.5-.2,1-.6,1.4-1,.5-.5.9-1.2,1.3-2.1l7-15.6h-.8l-5.9,13.2-5.9-13.2h-.9l6.3,14-.7,1.6c-.5,1-1,1.7-1.5,2.1-.6.4-1.2.7-2,.7s-1.2-.1-1.7-.3c-.3-.1-.6-.3-.9-.5l-.4.6Z" />
        <path class="cls-1"
          d="M33.2,96.2c-.7,0-1,.3-1,1s0,.6.2.7c.2.1.4.2.7.2.7,0,1-.3,1-1s0-.6-.3-.7c-.2-.2-.4-.3-.7-.3" />
        <path class="cls-1"
          d="M33.2,98.5c-.4,0-.7,0-.9-.3-.2-.2-.3-.5-.3-.9,0-.8.4-1.3,1.3-1.3s.7.1.9.3c.2.2.3.5.3.9,0,.8-.5,1.3-1.3,1.3M33.2,96.5c-.5,0-.7.2-.7.8s0,.4.2.5c.1.1.3.2.6.2.5,0,.7-.2.7-.7s0-.4-.2-.6c-.1-.1-.3-.2-.6-.2" />
        <path class="cls-1"
          d="M35.6,96.3c-.3,0-.5,0-.7.2-.2.2-.3.4-.3.7,0,.7.3,1,1,1s.6,0,.7-.2c.2-.1.2-.4.2-.7,0-.7-.3-1-1-1" />
        <path class="cls-1"
          d="M35.6,98.5c-.8,0-1.3-.5-1.3-1.3s.1-.7.4-.9c.2-.2.5-.3.9-.3.8,0,1.3.5,1.3,1.3s-.1.7-.3.9c-.2.2-.5.3-.9.3M35.6,96.5c-.2,0-.4,0-.5.2-.1.1-.2.3-.2.5,0,.5.2.7.7.7s.5,0,.6-.2c.1,0,.2-.3.2-.5,0-.6-.2-.8-.7-.8" />
        <path class="cls-1"
          d="M99.4,82.3c-.4-.5-.9-.8-1.5-1-.6-.2-1.2-.3-1.8-.3s-1.4.1-2,.3c-.6.2-1.2.5-1.7.9-.5.4-1,.8-1.5,1.3-.5.5-.9,1-1.4,1.6h-.1v-3.4h-1.6v7.5h-49.3v-7.5h-2.3c-.6,0-1.2.1-1.7.4s-1,.6-1.3,1c-.4.4-.7.9-.9,1.5-.2.6-.3,1.2-.3,1.9v4.4c0,.7,0,1.3-.3,1.9-.2.6-.5,1.1-.9,1.5-.4.4-.8.8-1.3,1-.5.2-1.1.4-1.7.4-1.4,0-2.5-.5-3.2-1.5-.8-1-1.1-2.4-1.1-4.3v-1.9h-1.8v2c0,2.4.5,4.3,1.6,5.6,1,1.3,2.5,2,4.5,2s1.6-.2,2.4-.5c.7-.3,1.4-.7,1.9-1.3.6-.6,1-1.3,1.3-2.1.3-.8.5-1.7.5-2.7v-4.5c0-.8.2-1.5.6-2,.4-.5,1-.8,1.8-.8h.5v7.4h64v-4.5c0-.9-.1-1.8-.4-2.5s-.6-1.3-1-1.7M98.9,89.1h-9.2v-1.9c.4-.5.8-1.1,1.3-1.6.4-.5.9-1,1.4-1.4.5-.4,1-.8,1.6-1,.6-.3,1.2-.4,1.9-.4s.8,0,1.2.2c.4.1.7.4,1,.7.3.3.5.7.7,1.2.2.5.2,1.1.2,1.7v2.5Z" />
        <path class="cls-1"
          d="M27.9,97.8c-2,0-3.6-.7-4.7-2.1-1.1-1.4-1.6-3.3-1.6-5.8v-2.2h2.3v2.2c0,1.8.4,3.2,1.1,4.1.7.9,1.7,1.4,3,1.4s1.1-.1,1.6-.3c.5-.2.9-.5,1.2-.9.3-.4.6-.9.8-1.4.2-.6.3-1.2.3-1.8v-4.4c0-.7.1-1.3.3-2,.2-.6.5-1.2.9-1.6.4-.5.9-.8,1.4-1.1.6-.3,1.2-.4,1.8-.4h2.5v7.5h48.8v-7.5h2.1v3.1c.3-.4.7-.8,1-1.2.5-.5,1-1,1.5-1.3.5-.4,1.1-.7,1.7-.9.6-.2,1.3-.3,2.1-.3s1.3.1,1.9.4c.6.2,1.1.6,1.6,1.1.4.5.8,1.1,1.1,1.8.3.7.4,1.6.4,2.5v4.8H36.5v-7.4h-.2c-.7,0-1.2.2-1.6.7-.4.5-.5,1.1-.5,1.8v4.5c0,1-.2,2-.5,2.8-.3.8-.8,1.6-1.4,2.2-.6.6-1.3,1.1-2,1.4-.8.3-1.6.5-2.5.5M22.1,88.2v1.7c0,2.3.5,4.2,1.5,5.4,1,1.2,2.4,1.9,4.3,1.9s1.6-.1,2.3-.4c.7-.3,1.3-.7,1.8-1.3.5-.5.9-1.2,1.3-2,.3-.8.5-1.7.5-2.6v-4.5c0-.8.2-1.6.6-2.2.4-.6,1.1-.9,2-.9h.7v7.4h63.4v-4.2c0-.9-.1-1.7-.4-2.4-.2-.7-.6-1.2-1-1.7-.4-.4-.9-.8-1.4-1-.5-.2-1.1-.3-1.7-.3s-1.3.1-1.9.3c-.6.2-1.1.5-1.6.9-.5.4-1,.8-1.4,1.3-.5.5-.9,1-1.3,1.6h0c0,0-.5,0-.5,0v-3.4h-1v7.5h-49.8v-7.5h-2c-.6,0-1.1.1-1.6.3-.5.2-.9.6-1.2.9-.3.4-.6.9-.8,1.4s-.3,1.2-.3,1.8v4.4c0,.7-.1,1.4-.3,2-.2.6-.5,1.2-.9,1.6-.4.5-.9.8-1.4,1.1-.5.3-1.2.4-1.8.4-1.5,0-2.6-.5-3.4-1.6-.8-1-1.2-2.5-1.2-4.5v-1.6h-1.2ZM99.2,89.4h-9.7v-2.2h0c.4-.6.8-1.2,1.3-1.7.4-.5.9-1,1.4-1.5.5-.4,1.1-.8,1.7-1.1.6-.3,1.3-.4,2-.4s.9,0,1.3.2c.4.2.8.4,1.1.8.3.3.5.8.7,1.3.2.5.3,1.1.3,1.8v2.7ZM90,88.8h8.6v-2.2c0-.6,0-1.2-.2-1.7-.2-.4-.4-.8-.6-1.1-.3-.3-.5-.5-.9-.6-.3-.1-.7-.2-1.1-.2-.6,0-1.3.1-1.8.4-.6.3-1.1.6-1.5,1-.5.4-.9.9-1.3,1.4-.4.5-.8,1-1.2,1.5v1.5Z" />
        <rect class="cls-1" x="104.5" y="74.9" width="1.8" height="12.5" />
        <path class="cls-1" d="M106.6,87.6h-2.4v-13.1h2.4v13.1ZM104.7,87.1h1.3v-12h-1.3v12Z" />
        <path class="cls-1" d="M117.8,78.7c.7,0,1-.3,1-1s-.3-1-1-1-1,.3-1,1,.3,1,1,1" />
        <path class="cls-1"
          d="M117.8,79c-.8,0-1.3-.5-1.3-1.3s.5-1.3,1.3-1.3,1.3.5,1.3,1.3-.5,1.3-1.3,1.3M117.8,76.9c-.6,0-.8.2-.8.8s.2.8.8.8.8-.2.8-.8-.2-.8-.8-.8" />
        <path class="cls-1"
          d="M122.5,89.4c-.2-.2-.4-.4-.5-.8-.1-.3-.2-.8-.2-1.2v-1.7c0-.7,0-1.3-.2-1.9-.2-.6-.4-1.1-.7-1.5-.3-.4-.7-.8-1.2-1-.5-.2-1.1-.4-1.8-.4s-1.7.2-2.3.6c-.7.4-1.2.9-1.7,1.5l1.2,1.1c.4-.4.8-.8,1.2-1,.4-.3,1-.4,1.5-.4s1.3.3,1.7.8c.4.5.6,1.2.6,2.1v1.6c0,.6,0,1,.1,1.3,0,.3.2.5.4.7h0c-.2,0-.4,0-.7,0-.3,0-.5,0-.8,0h-6.2c-.5,0-.8-.2-1-.5-.2-.3-.3-.8-.3-1.4v-12.3h-1.8v11.5c0,.8-.2,1.4-.6,2s-1,.8-1.8.8h-4.1v1.9h4.1c.8,0,1.4-.1,2-.4.6-.3,1-.8,1.3-1.5h0c.2.7.5,1.2.8,1.5.4.3.8.4,1.3.4,0,0,0,0,0,0h6.3c1.2,0,2.2,0,3.1.2l.5-1.5-.3-.3Z" />
        <path class="cls-1"
          d="M122.6,91.5h-.2c-.9-.2-1.9-.3-3.1-.3h-6.4c-.5,0-1-.2-1.4-.5-.3-.2-.6-.6-.8-1.1-.3.5-.7.9-1.2,1.1-.6.3-1.3.5-2.1.5h-4.4v-2.4h4.4c.7,0,1.2-.2,1.6-.7.4-.5.6-1.1.6-1.8v-11.7h2.3v12.6c0,.6,0,1,.3,1.3.2.3.4.4.8.4h6.2c.3,0,.6,0,.8,0,0,0,.1,0,.2,0,0,0,0-.2-.1-.3,0-.3-.1-.7-.1-1.4v-1.6c0-.8-.2-1.5-.6-2-.4-.5-.9-.7-1.5-.7s-1,.1-1.4.4c-.4.2-.8.6-1.2,1l-.2.2-1.6-1.5.2-.2c.5-.6,1.1-1.2,1.8-1.6.7-.4,1.5-.6,2.5-.6s1.3.1,1.9.4c.5.3,1,.6,1.3,1.1.4.4.6,1,.8,1.6.2.6.3,1.3.3,2v1.7c0,.4,0,.8.2,1.2,0,.3.2.5.4.7l.5.4-.6,1.8ZM119.3,90.7c1.1,0,2.1,0,3,.2l.3-1.1-.2-.2c-.2-.2-.4-.5-.5-.9-.1-.4-.2-.8-.2-1.3v-1.7c0-.7,0-1.3-.2-1.8-.2-.5-.4-1-.7-1.4-.3-.4-.7-.7-1.2-.9-.5-.2-1-.3-1.7-.3s-1.6.2-2.2.6c-.6.3-1.1.8-1.5,1.3l.8.8c.4-.4.7-.7,1.1-.9.5-.3,1-.4,1.7-.4s1.5.3,1.9.9c.4.6.7,1.3.7,2.3v1.6c0,.5,0,.9.1,1.2,0,.2.2.4.3.6l.2.2-.3.5h-.2c-.2-.2-.4-.2-.6-.2-.2,0-.5,0-.7,0h-6.2c-.6,0-1-.2-1.2-.6-.3-.4-.4-.9-.4-1.6v-12h-1.3v11.2c0,.8-.2,1.6-.7,2.1-.5.6-1.1.9-2,.9h-3.9v1.4h3.9c.7,0,1.3-.1,1.9-.4.5-.3.9-.7,1.2-1.4v-.2h.4v.2c.3.6.5,1.1.8,1.3.3.3.7.4,1.2.4h0s6.3,0,6.3,0Z" />
        <rect class="cls-1" x="138.1" y="19.8" width="10.9" height="10.9"
          transform="translate(41 128.8) rotate(-55.3)" />
        <path class="cls-2"
          d="M180.4,46.9c-4.6,2.3-8.7,5.5-12.2,9.4-11.2,12.6-16.1,32.8-11.6,56.1l1.1,5.8-19-11c-2.3-23.1,5-43.9,18.6-57.2,4.2-4.1,8.9-7.5,14.2-10l8.9,6.8Z" />
        <path class="cls-1"
          d="M196.5,123.8c-4-.3-8,.3-11.9,1.7-1.4-2.8-2.9-5.3-4.7-7.5-2.2-2.8-4.5-5.2-7.1-7.2,0,5.3,0,10.6.1,15.8-1.9-.9-3.7-1.8-5.6-2.8l-6.4-3.7-.4-25.7c-.3-19,7.7-34.9,20-43.4.9-.6,1.9-1.3,2.9-1.8l7,5.3c-1,.6-2.1,1.4-3,2.1-9,7.2-14.8,20-14.9,36,3-4.4,6.9-8.3,11.6-11.6,2.3-1.6,4.7-3,7.3-4.3-.3,4,.3,8,1.7,11.9-2.8,1.4-5.3,2.9-7.5,4.7-3.5,2.7-6.4,5.8-8.6,9.1,5.8,3.2,11,7.9,15.2,13.8,1.6,2.3,3,4.7,4.3,7.3" />
        <path class="cls-1"
          d="M145.8,41.9c-12.1-2.6-24.2-1.9-34.8,2.1l-.4,22.6,14.8,1.8-7.9-13.4c5.4-.8,11-.8,16.9.2,4,.7,8,1.8,12.1,3.3,2.6-5.2,6.2-9.7,10.7-13.3-3.8-1.5-7.6-2.6-11.5-3.4" />
      </g>
    </g>
  </g>
</svg>