<?xml version="1.0" encoding="UTF-8"?>
<svg xmlns="http://www.w3.org/2000/svg" version="1.1" viewBox="0 0 190 144.7">
  <defs>
    <style>
      .cls-1 {
        fill: #00a651;
      }

      .cls-2 {
        fill: #006838;
      }
    </style>
  </defs>
  <!-- Generator: Adobe Illustrator 28.7.4, SVG Export Plug-In . SVG Version: 1.2.0 Build 166)  -->
  <g>
    <g id="Layer_1">
      <g>
        <rect class="cls-1" x="101.9" y="27.6" width="9.3" height="9.3"
          transform="translate(19.3 101.4) rotate(-55.3)" />
        <path class="cls-2"
          d="M138,50.8c-3.9,2-7.4,4.7-10.4,8.1-9.6,10.8-13.7,28-9.9,48l.9,4.9-16.2-9.4c-1.9-19.8,4.3-37.5,15.9-48.9,3.6-3.5,7.6-6.4,12.1-8.6l7.6,5.8Z" />
        <path class="cls-1"
          d="M151.8,116.5c-3.5-.2-6.9.3-10.2,1.5-1.2-2.4-2.5-4.5-4-6.4-1.8-2.4-3.9-4.4-6.1-6.1,0,4.5,0,9,.1,13.5-1.6-.8-3.2-1.6-4.8-2.4l-5.4-3.1-.4-21.9c-.3-16.2,6.6-29.8,17.1-37.1.8-.6,1.6-1.1,2.5-1.5l5.9,4.6c-.9.6-1.8,1.2-2.6,1.8-7.7,6.1-12.6,17.1-12.7,30.8,2.6-3.7,5.9-7.1,9.9-9.9,1.9-1.4,4-2.6,6.2-3.6-.2,3.4.3,6.9,1.5,10.2-2.4,1.2-4.5,2.5-6.4,4-3,2.3-5.5,4.9-7.3,7.8,5,2.7,9.4,6.8,13,11.8,1.4,1.9,2.6,4,3.7,6.2" />
        <path class="cls-1"
          d="M108.5,46.5c-10.4-2.2-20.7-1.6-29.7,1.8l-.4,19.3,12.7,1.6-6.7-11.4c4.6-.7,9.4-.7,14.5.2,3.4.6,6.9,1.5,10.4,2.8,2.2-4.4,5.3-8.3,9.1-11.3-3.3-1.3-6.5-2.2-9.8-2.9" />
      </g>
    </g>
  </g>
</svg>