<svg width={128} height={128} xmlns="http://www.w3.org/2000/svg" viewBox="0 0 60 58.5">
    <path
        d="M10.6 0h38.8C55.2 0 60 4.8 60 10.6v37.2c0 5.9-4.8 10.6-10.6 10.6H10.6C4.8 58.5 0 53.7 0 47.9V10.6C0 4.8 4.8 0 10.6 0z"
        fill="#b30b00" />
    <path
        d="M48.2 33.9C47 32.6 44.7 32 41.4 32c-1.8 0-3.7.2-5.5.5-1.2-1.1-2.2-2.4-3.2-3.7-.7-1-1.4-2-2-3.1 1-2.8 1.6-5.8 1.8-8.8 0-2.7-1.1-5.6-4.1-5.6-1 0-2 .6-2.5 1.5-1.3 2.2-.8 6.7 1.3 11.4-.7 2.1-1.5 4.2-2.4 6.5-.8 2-1.7 3.9-2.8 5.7-3.1 1.2-9.6 4.2-10.2 7.5-.2 1 .1 2 .9 2.6.7.6 1.7 1 2.7.9 3.9 0 7.8-5.4 10.5-10.1 1.5-.5 3-1 4.6-1.4 1.7-.4 3.3-.8 4.8-1.1 4.2 3.6 7.9 4.2 9.7 4.2 2.5 0 3.5-1.1 3.8-2 .4-1.1.2-2.3-.6-3.1z"
        fill="#fff" />
</svg>