<?xml version="1.0" encoding="UTF-8"?>
<svg xmlns="http://www.w3.org/2000/svg" version="1.1" viewBox="0 0 841.9 373.8">
  <defs>
    <style>
      .cls-1, .cls-2 {
        fill: #f9d60c;
      }

      .cls-3 {
        fill: none;
        stroke: #25ac4c;
        stroke-miterlimit: 10;
        stroke-width: 5.3px;
      }

      .cls-4, .cls-5, .cls-6 {
        fill: #fff;
      }

      .cls-5, .cls-7, .cls-2, .cls-8, .cls-9 {
        fill-rule: evenodd;
      }

      .cls-7 {
        fill: #fedf00;
      }

      .cls-6 {
        font-family: Louguiya-Bold, Louguiya;
        font-size: 25.7px;
        font-weight: 700;
      }

      .cls-8 {
        fill: #d02027;
      }

      .cls-9 {
        fill: #25ac4c;
      }
    </style>
  </defs>
  <!-- Generator: Adobe Illustrator 28.7.4, SVG Export Plug-In . SVG Version: 1.2.0 Build 166)  -->
  <g>
    <g id="Layer_1">
      <g id="g10">
        <g id="g12">
          <path id="path14" class="cls-9" d="M639.4,121.6c37.1,0,67.1,30,67.1,67.1s-30,67.1-67.1,67.1c-37.1,0-67.1-30-67.1-67.1s30-67.1,67.1-67.1"/>
          <path id="path16" class="cls-2" d="M639.4,127.2l7.6,23.6h24.7c0,0-20.1,14.5-20.1,14.5l7.7,23.5-20-14.6-20,14.6,7.7-23.5-20.1-14.5h24.7c0,0,7.6-23.5,7.6-23.5h0ZM676.3,145.2c14.1,11.1,23.1,28.4,23.1,47.9,0,33.5-26.9,60.7-60,60.7s-60-27.2-60-60.7c0-19.4,9-36.7,23.1-47.9h0c1.1-.8,2.2-1.2,2.4-.9.2.3-.3.7-1.2,1.6-9.1,9.1-14.8,21.7-14.8,35.6,0,27.8,22.6,50.4,50.5,50.4s50.5-22.6,50.5-50.4-5.6-26.5-14.8-35.6h0c-.9-.9-1.4-1.3-1.2-1.6.2-.3,1.2.1,2.4.9h0ZM675.1,145.9h0"/>
          <path id="path18" class="cls-2" d="M639.4,120.3c37.8,0,68.4,30.6,68.4,68.4s-30.6,68.4-68.4,68.4-68.4-30.6-68.4-68.4,30.6-68.4,68.4-68.4h0ZM639.4,122.6c36.5,0,66.1,29.6,66.1,66.1s-29.6,66.1-66.1,66.1c-36.5,0-66.1-29.6-66.1-66.1s29.6-66.1,66.1-66.1"/>
          <path id="path20" class="cls-2" d="M639.4,91.5c53.7,0,97.2,43.5,97.2,97.2,0,53.7-43.5,97.2-97.2,97.2s-97.2-43.5-97.2-97.2c0-53.7,43.5-97.2,97.2-97.2h0ZM639.4,94.7c51.9,0,94,42.1,94,94,0,51.9-42.1,94-94,94-51.9,0-94-42.1-94-94,0-51.9,42.1-94,94-94"/>
          <path id="path22" class="cls-8" d="M571,188.7c0-37.8,30.6-68.4,68.4-68.4,37.8,0,68.4,30.6,68.4,68.4s-30.6,68.4-68.4,68.4-68.4-30.6-68.4-68.4h0ZM733.4,188.7c0-51.9-42.1-94-94-94s-94,42.1-94,94c0,51.9,42.1,94,94,94,51.9,0,94-42.1,94-94"/>
          <path id="path24" class="cls-2" d="M672.6,110.1l3.1-1.2,1,.6c-.9,1.7-1.6,3.5-1.7,5.4-.7-.4-1.1-.8-1.4-1.2-1.4,3.3-4.2,5.8-6.8,6.5l.2-1.1c2.4-2.2,4.4-5.7,5.7-9"/>
          <path id="path26" class="cls-2" d="M594.3,117v-3.3c.1,0,1-.7,1-.7,1.2,1.6,2.5,2.9,4.3,3.7-.6.5-1.2.7-1.7.8,2.4,2.6,3.7,6.2,3.2,8.9l-.9-.6c-1-3.1-3.4-6.4-5.9-8.8"/>
          <path id="path28" class="cls-2" d="M583.8,131.5c.1.2-2,2.5-1.5-.2,0-.4.7-.8,1.5.2ZM588.4,128.7c-.2-.1-.2-.5-.1-1.3,0-.3.6-.6,1.1-.2,1.1.7-.8,1.7-1,1.5h0ZM589.3,118.4c-.9-1.1-.2-3.3.4-3.2,1.3.2,2.6,2.1,3.7,3.1.2.1-.5,0-1.6-.1,0,0,1.2,1.3,2.1,3.1.5.9,1.2,2,1.3,3,0,1.5-1,2.9-3.2,3.3h-.3c.2,1.3,0,2.2-.8,2.6-1.5,1-2.7-.3-3.8.3,0,.2-.1.9-.4,1.6l-1.4,1.4c-.5.8-1.4,1.8-2.8,1.2-3.1-2.4-2.6-5.4-1.8-5.9,1.2-.8,2.6-.7,4.6.8.3-.4.6-.8.7-.9.6-1.1.6-1.9.7-2.6.2-2.4,2.1-1,3.6-1.1,1,0,2.6-.4,2.9-1.5,0-.2,0-.4,0-.6-1-1.3-1.4-2.2-3.7-4.7"/>
          <path id="path30" class="cls-2" d="M578.2,137.3c-.2-.2-.8-.6-1-.4-1.4,1.1-1.7.8-2-.6,0-.2-.4-1.9-.5-2.9,0-1.4.4-1.9,1.4-1.2,2.2,1.4,5.4,4.3,5.7,7.4.1,2-1.1,3.9-2.6,5.7-.3-.2-.4-.4-.3-.6,1-3,1.1-4.8-.7-7.4"/>
          <path id="path32" class="cls-2" d="M573.9,143.9c-.2-.2-.8-.7-.9-.5-1,1.2-1.3.6-1.9-.8,0-.2-.4-1.3-.4-2.3,0-1.1.9-1.8,1.8-1,2,1.7,3.9,3.2,3.9,6.3,0,2.3-2,4-4.3,4.4,0,.5,0,1,0,1.4h0c-.2,5.3-3.2,7.5-8.2,4.4-.7-.4-1.2-.5-2-.7-.4,0-.9-.1-1.7,0-.4,0-.8-.3-.8-.4-.2-.8-1.7-2.4.6-2.1.8,0,1.6.2,2.6.7,1.1.5,1.6.7,2.5,1.3,4.2,1.5,4.9-3.6,4.4-6-.2-1.2,0-2,.9-1.5.3.2.6.3.8.3,1.6-.1,3.1-1.8,2.5-3.3"/>
          <path id="path34" class="cls-2" d="M573.9,154.9l-.6-1.5c0-.2,0-.4.2-.5l1.5-.6s0,0,.1,0l-.5-1.3c0-.2,0-.4.2-.5l1.5-.6c.2,0,.4,0,.5.2l.6,1.5c0,.2,0,.4-.2.5l-1.5.6s0,0-.1,0l.5,1.3c0,.2,0,.4-.2.5l-1.5.6c-.2,0-.4,0-.5-.2"/>
          <path id="path36" class="cls-2" d="M564.6,148.8l-.7-1.5c0-.2,0-.4.2-.5l1.5-.7s0,0,.1,0l-.6-1.2c0-.2,0-.4.2-.5l1.5-.7c.2,0,.4,0,.5.2l.7,1.5c0,.2,0,.4-.2.5l-1.5.7s0,0-.1,0l.6,1.2c0,.2,0,.4-.2.5l-1.5.7c-.2,0-.4,0-.5-.2"/>
          <path id="path38" class="cls-2" d="M567.2,171.9l-1.1-1.2c-.1-.1-.1-.4,0-.5l1.2-1.1s0,0,0,0l-.9-1c-.1-.1-.1-.4,0-.5l1.2-1.1c.2-.1.4-.1.5,0l1.1,1.2c.1.1.1.4,0,.5l-1.2,1.1s0,0,0,0l.9,1c.1.1.1.4,0,.5l-1.2,1.1c-.2.1-.4.1-.5,0"/>
          <path id="path40" class="cls-2" d="M553.5,180l-1.2-1.1c-.2-.1-.2-.4,0-.5l1.1-1.2s0,0,0,0l-1-.9c-.2-.1-.2-.4,0-.5l1.1-1.2c.1-.1.4-.2.5,0l1.2,1.1c.2.1.2.4,0,.5l-1.1,1.2s0,0,0,0l1,.9c.2.1.2.4,0,.5l-1.1,1.2c-.1.1-.4.2-.5,0"/>
          <path id="path42" class="cls-2" d="M625.4,111.8c0-.2,0-.6.5-1.2.2-.3.7-.3,1.1.3.7,1.1-1.4,1.1-1.6.9ZM624.8,108.9c1.2-2,2.3,0,3.7.6.2,0,.5.2.7.3-.2,1.5-.4,4.4-2.3,4.6-1.7.2-2.3-1.5-3.5-1.4-1.2,1.2-1.9,2.2-4.5.8-1.4,2.4-5.7,4.6-8.6,1.7-1.5,2.7-4.2,3.9-5.1,1.1-1-3,3.2-4.7,3.7-4.8,0-.8.3-1.4.6-1.6.6-.4,1.5,0,1.5.3,0,1.8.5,2.8,1.2,3.3,1.1.8,3.7.1,4.4-.7.4-.4.6-1.1,1.1-2,.6-1.1,1.2-1.6,1.6-.7.1.3.3.6.5.7,1.9,1.2,3.9-.8,4.9-2.3h0ZM609.3,114.3c-1,1.6-2.4,1.9-2.3,1,.3-.8,1.6-1.7,2-1.6l.3.6"/>
          <path id="path44" class="cls-2" d="M563.1,161.2c-.2-.2-1-.3-1-.1-.4,1.5-1,1-2.1,0-.1-.1-.8-1-1.3-1.9-.5-1,.1-2,1.3-1.7,2.5.8,4.9,1.4,6.1,4.2.9,2.1,0,4.9-2,6,.3.4.4.9.6,1.2h0c0,.2.2.5.3.8h0c0,.1,0,.2,0,.3h0s0,.1,0,.1c.4,2.2-1.1,4.4-3,4.9,1.7,2.5,1.6,5.5-1.3,5.1-3.1-.4-2.8-5-2.6-5.5-.7-.3-1.2-.9-1.2-1.3,0-.7.8-1.3.9-1.2,1.6.8,2.7.8,3.5.4,1.2-.6,1.5-2.3,1.1-3.3-.1-.6-.7-1-1.3-1.9-.7-1-.9-1.8.2-1.8.4,0,.7,0,.9-.1,1.5-.6,2.3-3.1.9-4.4h0ZM560.4,175.5c1,1.6.6,3.1-.1,2.5-.6-.6-.8-2.1-.5-2.5h.7"/>
          <path id="path46" class="cls-2" d="M656.2,116.7c0-.3.1-.5.3-.5.6,0,1.1-.2,1.6-.3,1.2-.3,2.7-.8,4.1-1.6.2-1.9-.1-4-1.1-5.9l-.8.6c0,0-1.7-1.8-1.7-2.6,0-1.6,2.8-3.1,3.5-2.1,1.1,1.9,2.4,6.1,1.7,9,1.8-1.4,3.1-3.4,2.7-6.3-.2-1.4,2.4-2.3,2.7-1.8.7,1.1,0,3.3,0,4.9,0,.2-.4-.3-.9-1.3,0,0-.2,1.7-1,3.6-.9,2.1-2.7,4.2-4.9,4.8-1.7.5-4.4,0-6.1-.5"/>
          <path id="path48" class="cls-2" d="M638.7,111.2c.8,2.6,4.1,3.3,7.4,1.3.8,2.2,3.6,1.8,5.1.9,3.9,3.1,7.7-1.1,6.2-5.2l-1.9,1.3c.6,3.4-3.7,2.8-2.1,0,.1-.5-1.4-.4-1.7.2l-.5.7c-1.2,1.8-3.2,1.3-3.1-.5,0-.4.2-.9.4-1.3.1-.5-1.3-.4-1.5.2-1.7,2.8-7.4,3.4-6.9-1.7,0-.8.1-1.7.2-2.7,0-1.1,0-2.2-.1-3-.6-2.3-1.5-.3-2.2.2-.1.1-.4.6-.1.9.3.7.4,1.2.5,1.6.4,2.1-.4,4.3-1.8,5.9.1-3-1.9-6.9-3.4-8.5-.9-.9-3.3,1.1-3,2.7.2.8,2.2,2.3,2.2,2.2l.7-.7c1.3,1.7,2.1,3.7,2.2,5.6-1.3,1.1-2.7,1.8-3.7,2.4-.4.2-.9.4-1.5.6-.2,0-.3.3-.2.6,1.7,0,4.6,0,6.1-.7,1.2-.6,2.1-1.7,2.8-2.9"/>
          <path id="path50" class="cls-2" d="M725,175.2l3,1.4.2,1.1c-1.9.5-3.7,1.1-5.1,2.4-.2-.8-.2-1.4,0-1.9-3.3,1.2-7.1.9-9.4-.6l.9-.6c3.2.3,7.2-.6,10.5-1.9"/>
          <path id="path52" class="cls-2" d="M709.5,147.5c.6-.3,4.3-.6,3.8.4-.9,1.6-3.2-.2-3.8-.4ZM711.9,157.6c.2-.1.6,0,1.2.3.3.1.4.7-.2,1.2-1,.8-1.3-1.3-1-1.5h0ZM706.6,142.5c-.2,0-1.7-2.8.7-1.5.3.2.6.9-.7,1.5ZM704.1,143.2c-.6-.7-1.2-2-.3-3.1,3.2-2.4,5.9-.9,6.1,0,.3,1.5-.2,2.8-2.3,4.4-.2,1,.3,1.2.6,1.6,3-1.1,5.9-1,6.8.2.9,1.1.3,3.2-3.6,4.4,0,2.2,0,3,1,4.4.8.9,1.6,1.2,2.2,1.5,2.2.9.2,2.4-.2,3.9-.5,1.8.1,5.8,2.5,7.6,1.3-1.7.7-3.6-1.3-5.5l1.2-2c2.1,1.2,3,2.2,3.7,3.9.9,2.3-.9,7.3,2.8,5.6.1-.9.5-1.3,1.4-1.7l2.5,1.1-.3,1.2c-1.3.4-2.3,1.3-3.2,2.4,0,0-.5-.7-.5-1.6-4.1,1.1-2.8-1.9-4.8-2.6-.3,1.3-.3,2.7.1,4.3l-3.1,1.4c.9-8.4-4.6-5.1-3-13.3-1.8-.1-2.8-.7-3.1-1.7-.4-1.8,1.2-2.6,1-3.9-.5-.4-1.2-.6-1.3-2.6-3,1.6-5.8-.8-3-6-.9-.6-.8-1.2-1.2-2-6,1.2-7.5-2.3-8.2-6.6.3-.1.5,0,.6,0,1.7,3,3,4.6,6.7,4.7h0ZM707.3,148.9c5.5,1-.6,5.7,0,0"/>
          <path id="path54" class="cls-2" d="M697.4,134.4c.3-.1.7-.6.6-.8-.7-1.6-.4-1.9,1.1-1.8.2,0,2,0,3,.3,1.4.3,1.7.8.8,1.6-1.9,1.8-5.6,4.2-8.6,3.6-2-.4-3.5-2-4.9-3.9.2-.2.4-.3.6-.2,2.6,1.7,4.4,2.2,7.4,1.1"/>
          <path id="path56" class="cls-2" d="M692.2,128.1c.3,0,.9-.6.7-.7-.9-1.3-.2-1.4,1.3-1.6.2,0,1.3,0,2.3.2,1.1.3,1.5,1.3.5,2-2.2,1.5-4.1,2.9-7.1,2.1-5.7-1.6-7.2-4-7.7-5.2-.3-.8-.4-1.6-.3-2.3-3,.4-5.6-1-4-3.4,1.8-2.6,5.7-.3,6,0,.6-.5,1.3-.7,1.7-.5.7.3.8,1.3.7,1.4-1.9,1.4-2.1,2.8-1.6,3.8.5,1,2.3,3.3,7.4,4.2h0ZM682.4,120.9c-1.9.2-3-.8-2.1-1.2.8-.2,2.3.2,2.5.6l-.4.6"/>
          <path id="path58" class="cls-2" d="M710.7,168.1l1.7.4c.2,0,.4.2.3.5l-.4,1.9c0,.2-.3.4-.5.3l-1.7-.4c-.2,0-.4-.2-.3-.5l.4-1.9c0-.2.3-.4.5-.3"/>
          <path id="path60" class="cls-2" d="M554.5,160.1l1.3-1.1c.2-.1.4-.1.6,0l1.2,1.4c.1.2.1.4,0,.6l-1.3,1.1c-.2.1-.4.1-.6,0l-1.2-1.4c-.1-.2-.1-.4,0-.6"/>
          <path id="path62" class="cls-2" d="M681.8,113.1l1.6-.8c.2,0,.4,0,.5.2l.8,1.6s0,0,0,.1l1.3-.7c.2,0,.4,0,.5.2l.8,1.6c.1.2,0,.4-.2.5l-1.6.8c-.2,0-.4,0-.5-.2l-.8-1.6s0,0,0-.1l-1.3.7c-.2,0-.4,0-.5-.2l-.8-1.6c-.1-.2,0-.4.2-.5"/>
          <path id="path64" class="cls-2" d="M682.8,129.6l1.4-.8c.2-.1.4,0,.5.1l.8,1.4s0,0,0,.1l1.2-.6c.2-.1.4,0,.5.1l.8,1.4c.1.2,0,.4-.1.5l-1.4.8c-.2.1-.4,0-.5-.1l-.8-1.4s0,0,0-.1l-1.2.6c-.2.1-.4,0-.5-.1l-.8-1.4c-.1-.2,0-.4.1-.5"/>
          <path id="path66" class="cls-2" d="M616.9,118.4l.7-1.5c0-.2.3-.3.5-.2l1.5.7s0,0,0,0l.6-1.2c0-.2.3-.3.5-.2l1.5.7c.2,0,.3.3.2.5l-.7,1.5c0,.2-.3.3-.5.2l-1.5-.7s0,0,0,0l-.6,1.2c0,.2-.3.3-.5.2l-1.5-.7c-.2,0-.3-.3-.2-.5"/>
          <path id="path68" class="cls-2" d="M603.8,109.6l.5-1.6c0-.2.3-.3.5-.2l1.6.5s0,0,.1,0l.4-1.3c0-.2.3-.3.5-.2l1.6.5c.2,0,.3.3.2.5l-.5,1.6c0,.2-.3.3-.5.2l-1.6-.5s0,0-.1,0l-.4,1.3c0,.2-.3.3-.5.2l-1.6-.5c-.2,0-.3-.3-.2-.5"/>
          <path id="path70" class="cls-2" d="M583.3,141.1c3.5-2.3,6-5,2.8-10.1l-1.3,1.6c1.2,3.4.3,5.2-1.6,7.9-.1.2,0,.4.1.6"/>
          <path id="path72" class="cls-2" d="M651.5,104.8c3.1,0-1.6.9-1.5,1.9,0,.2.2.3.4.3,1.3,0,3.6-1.2,5.2-3.3,0-.3-.3-.4-.6-.4-.2,0-2.2-.4-3.6,0-.3,0-.6.3-1.1,1.3-.9,1.6.5.3,1.1.3"/>
          <path id="path74" class="cls-2" d="M612.1,105.2c0,0-.5,1.1.3,1.2.9.3,7.8-2.2,9.6-4.5,1.1-1.4,0-.6-1,0-1.5.9-6.1,2.8-8.8,3.3"/>
          <path id="path76" class="cls-2" d="M721.7,159.6c-.1,0-1.5,0-1.4.7,1.1,1.8,2.2,3.3,4.1,3.8,1.7.5.6-.1-.3-.9-1.4-1.1-1.8-1.6-2.4-3.6"/>
          <path id="path78" class="cls-2" d="M621.1,104.7c-.1,0-.3,0-.3,0-.4.8-.5,1.5-.9,1.7-.1,0-.5.4-.8.2,0,0-.2-.3-.3-.6-.4-.5-.7.3-.8.6-.1.4-.4.7-.6.8-.9.4-1.2,0-1.1-.7,0-.5-.7-.6-.7,1,0,.5,0,1.2.5,1.5,1.2.5,1.9-.6,2.2-1.2,0,0,.2,0,.3,0,.8.4,1.4.1,1.7-.3.9-1.1,1-3.4.9-3.1"/>
          <path id="path80" class="cls-2" d="M695.6,121.6c0-.2-.2-.2-.3-.2-.8.3-1.4.8-1.8.7-.2,0-.6,0-.7-.3,0,0,0-.4.1-.6,0-.6-.7-.2-1,0-.4.2-.8.3-1,.2-.9-.2-.9-.8-.4-1.3.4-.4-.1-.9-1.2.3-.4.4-.8.9-.6,1.4.6,1.2,1.9.8,2.4.5,0,0,.2.1.2.2.4.8.9,1,1.5.9,1.4-.2,3-1.9,2.7-1.8"/>
          <path id="path82" class="cls-2" d="M555.2,163.9c-.1,0-.2.2,0,.3.5.7,1.1,1.1,1.1,1.5s.1.6-.2.8c0,0-.4,0-.6,0-.6,0,0,.8.2,1,.3.3.4.7.4.9,0,1-.6,1-1.2.7-.5-.3-.8.3.6,1.1.4.2,1.1.6,1.5.2,1-.8.3-2,0-2.5,0,0,0-.2.2-.3.7-.5.7-1.1.5-1.7-.5-1.3-2.6-2.4-2.3-2.2"/>
          <path id="path84" class="cls-2" d="M661.5,120.1c.1.2.4.4.3.4-.3,0-.7,0-.9.3-.2.2,0,.6.1.6.9,0,2.1-.4,3.2.2.1-.4.9-.6.6-.9-.3-.2-1.2-.1-1.8-.9-.4-.4,0-1.4.9-.5.8.8,1.3-.4,1.3-.5-.2-.4-1-.8-1.8-.8-1.1,0-2.5,1-2,2.1"/>
          <path id="path86" class="cls-2" d="M717.5,152.6c-.5-.4,0-.2-1.1-.5-.2,0-1.2-.2-1.2,0,0,.4.9.4,1.1,1.3.2.8-2-1-2.2-1-.4,0,1.4,2.3,3.9,2.2.8-.4-.4-1.8-.6-2.1"/>
          <path id="path88" class="cls-2" d="M704.6,135.3c-.4.3-.7,1.3-.6,1.7.3.1,1.7-.2,1.9-.4.1-.5,0-.7.4-1.1.4-.6.9-.1.9-.8-.7-.3-2,.2-2.6.6"/>
          <path id="path90" class="cls-2" d="M625.5,104.4c0,.5.5,1.3.8,1.6.3-.1.9-1.4,1-1.7-.3-.4-.5-.5-.6-1.1-.2-.7.5-.7,0-1.2-.6.3-1.2,1.6-1.2,2.3"/>
          <path id="path92" class="cls-2" d="M571.2,135.6c.4.3,1.3.5,1.8.4,0-.3-.4-1.6-.6-1.9-.5,0-.7,0-1.2-.2-.7-.4-.2-.9-.9-.7-.2.7.4,2,1,2.4"/>
          <path id="path94" class="cls-2" d="M586.9,121.7c.4.3,1.4.3,1.8.2,0-.3-.6-1.6-.8-1.8-.5,0-.6.1-1.2,0-.7-.3-.3-.8-1-.6,0,.7.7,1.9,1.3,2.3"/>
          <path id="path96" class="cls-2" d="M569,161.4c.5.2,1.4,0,1.8-.2,0-.3-.9-1.4-1.2-1.6-.5.1-.6.3-1.2.2-.8-.1-.5-.7-1.1-.4,0,.7,1,1.7,1.7,2"/>
          <path id="path98" class="cls-2" d="M643.6,102.4c1.2.9.4,3.3,1,3.6.9.5.8-6.4-.7-4.4-.1.2-.4.5-.2.8"/>
          <path id="path100" class="cls-2" d="M561.1,150.2c1.4-.6,3,1.3,3.6,1,.9-.5-5-4-4.1-1.6,0,.2.2.6.6.6"/>
          <path id="path102" class="cls-1" d="M584.1,125.7c-.3.6-.8,1-1.3,1.3-.3.2,1-2.8.8-3.6-1,.7-1.9-.2-1.9-1.2,0-1.3,1.2-1.9,2-.8.9,1.3,1.1,2.7.4,4.2h0ZM582.5,122.2c0,.2,0,.3.3.4.2,0,.4,0,.5-.2,0-.2,0-.3-.3-.4-.2,0-.4,0-.5.2"/>
          <path id="path104" class="cls-7" d="M602.5,211.6l-1.5,39.5,11.8,3.5-2.1-42.4-7.2-1-.9.3"/>
          <path id="path106" class="cls-3" d="M686.6,244.8l3.9-3.5-6.2-11.8c-.4-.7-.4-1.5.3-2.2l8.8-7.6c.5-.3,1-.3,1.5,0l4.8.2c3.3.9,5.6-5.1,7.9-4.9h2.5c1.2,0,1.3-.4.4-.6-5.6-2.1-5.5.3-9.2,1.1l-7.6-5.8c-1-.6-1.4-.4-2.1.4l-12.1,12.9c-.8.8-1.2.9-1.1-.5l.4-8.2c9.7-13.6,15.4-5.6,23.1-6.8,2.8-.7,5-2.6,6.8-5.6.7-1.2.7-1.8-.9-1.1-5.6,1.2-10.1-1.1-14.6-.5-5.3.7-10.1,3.2-14.1,10.4l.6-10.8,1.7-2.3c1.9,2.3,4.9,1.8,5.8-1.2,1.6,1.9,4.5,2,5.7-.4,2.7,3.1,6.1-1.4,2.2-2.6l2.3-1.1c1.8,2,4.9,1.6,5.2-1.4h0c.2-.1.5-.1.7-.2.5.4,1.2.7,2,.7,1.6,0,3-1.2,3-2.7,0-1.5-1.3-2.7-3-2.7s-2.6.9-2.9,2.1c-.4,0-.7,0-1,.2-1.3-1.7-4.3-.7-4.8,2-.7-.1-1.3-.1-1.9.3-2.1-.9-3.4-.3-5.3,1.3-1,.9-1.8,1.3-2.8,1.5-1.2-1.6-3.2-1.3-4.8.9-.4.1-.6-.4-.3-.8l2.8-2.4c2.3,1.9,4.7.7,4.2-1.1,2.4,1,4.3-.1,4.1-2.4,2.3,2,4.9.6,4.9-2.3,2.1,2.1,5.4.9,5.4-2,1.5,2.3,4.3,2.5,5.8,1.6.7-.4,1.3-1.2.7-1.9-.2-.4-.6-.3-.9-.6.4-1.4-1.4-2-4.6-1.9-4.8.2-10.9,3.2-16.7,6.2l-.3-.6c.7-.7,1.7-1.4,2.8-2.7,1.8.4,3.2,0,3.6-2.1l.9-.4c1.8,1,3.1,0,3.9-1.4,1,0,1.9-.2,2.7-.9.5-.7,1.8.8,3.6.2,2.2-.6,2.1-3.2-.2-3.9-.8-.2-1.8,0-2.6,1-.2.2-.3.2-.6.1h0c0-1-.9-1.8-2-1.8s-2,.9-2,2,0,.6.2.9c-.2,0-.3.2-.4.4-.1-1-1-1.8-2.1-1.8s-2.1.9-2.1,2.1.2,1.1.6,1.5c-.5-.3-.8-.1-.9.5h0c0-1.2-.9-2.1-2-2.1s-2,.9-2,2c0,.6.3,1.1.7,1.5h0c-.2.4-.5.5-.9.5h0c-3.6-3.4-7,1.2-3.7,3.8-1.4,0-3.3,1.2-2,4.2l-2.6,2.1.7-11.8c0-1.2-.2-2.1-.7-2.3-1.1-.5-3.2-.4-5,.4-.5.2-1.1.6-1.6,1.6-1.7,3.2-5.9,13.2-6.4,16,0,.3,0,.5,0,.6,0,.4.8-.3,1.4-.8,1.4-1,3.4-2.9,4.8-4l-.7,14.5c-6.3-9.7-15-10.1-21.4-6.3-3.8,2.6-4.9,6-9.2,9.9,1.4-.1,2.5-.4,3.6-1.5,0,2-.4,5.7.9,7.7-.5,2.8,2.8,4.6,1.3,8.9.8-.6,1.7-.9,2-3.7,2.4,2.2,5.7,3.2,8.8,2.7-1.3.3-2.3.9-2.6,1.6l-9.6,19c-.2.2,0,1.2.8.6l12-9.3c.7-.6,1.2-.5,1.6.2l11.1,17.6,4.5-.4,1.1-18.5c0-.9.6-1.4,1.3-1.9.9-.7,1.1-1.3,1.7-.2l6.6,12.6h0ZM698.3,202.7c-3.4-.8-7.8-1.3-12.8,2.4,10.5-3.2,10.2,1.1,16.3-1.1.4-.2.7-.3.6-.5-.1-.4-.7,0-4.1-.8h0ZM672.3,207.8l-.3,6.2c-1.3-2.9-2.9-5.4-4.9-7.3-3.4-3.3-8.9-5.1-13-1.8-1.6,1.3-2.6,3.1-2.8,4.9-.4,3.3,1.3,6.6,5.1,7.2,2.4,0,4.2-1.2,4.3-3.5,1.1-.3,1.8-1.3,1.7-2.6,2.8,0,3.5,2.8,2.6,5.7-1,3.3-4.3,6.6-9.1,6-2.1-.2-4.1-1.2-5.8-2.8.4-.2.7-.7.7-1.2,0-.8-.6-1.4-1.4-1.4s-.8.2-1,.5c-.7-1.2-1.3-2.5-1.6-4,.2,0,.4.1.6.1.9,0,1.6-.7,1.6-1.6s-.7-1.6-1.6-1.6-.6,0-.8.2c0-.5,0-1,.1-1.5,0-1,.3-2,.6-2.9.3.5.9.9,1.6.9,1.1,0,1.9-.9,1.9-1.9s-.9-1.9-1.9-1.9h0c.9-1.2,2-2.3,3.2-3.1,0,1.1.9,1.9,1.9,1.9s1.9-.9,1.9-1.9-.3-1.1-.7-1.5c1.1-.4,2.3-.6,3.5-.6s.9,0,1.3,0c-.2.3-.3.6-.3.9,0,.8.7,1.5,1.5,1.5s1.5-.7,1.5-1.5,0-.3,0-.4c4.3,1.4,7.2,4.9,9.7,8.8h0ZM671.9,215.9l-1.1,22.2c-.1,1-.6.6-.8,0l-6.6-13.8c-.6-.9-2.5-1.2-4.2-1,3.3-.8,6.2-3.2,7.2-7.8,1.9-3.2-.5-3.3-.3-6.2l-.6,1.9c-.8-1.3-2.1-1.8-4.1-1.5,1.3,4.3-5,4.1-5-.1.2-3.1,3.1-4.5,5.2-4.5,4,.1,7.3,4,10.3,10.8h0ZM669.4,247l-11.9-20.2c-2.1-2.4,5.1-2.8,5.4-1.2l7.2,16.2c.8,1.4,0,2.1-.7.9l-5.1-10.6c-.3-.6-1.7.3-1.3,1l6.8,12.9c.8,1.1-.1,1.6-.4,1.1h0ZM678.2,231.2c-.9.6-1-.9-.4-1.4l13.7-12.8c1.4-1.4,2,.4.8,1.4l-14.1,12.8h0ZM680.3,226.1c-.6.5-1.2-.5-.2-1.4l10.9-12.1c.8-1,1.7.1.6,1.2l-11.3,12.2h0ZM674.8,180.8c-.2-1.4,4.5-2.5,4.1-.6l-1.7,40.7c-.2,1.1-1.1,2.5-1.3,1.7l1.6-32.7c0-.7-1.1-.4-1.4.2l-1.4,30.7c-.1,2.8-1.3-.4-1.2-1.8l1.3-38.2h0Z"/>
          <path id="path108" class="cls-2" d="M686.6,244.8l3.9-3.5-6.2-11.8c-.4-.7-.4-1.5.3-2.2l8.8-7.6c.5-.3,1-.3,1.5,0l4.8.2c3.3.9,5.6-5.1,7.9-4.9h2.5c1.2,0,1.3-.4.4-.6-5.6-2.1-5.5.3-9.2,1.1l-7.6-5.8c-1-.6-1.4-.4-2.1.4l-12.1,12.9c-.8.8-1.2.9-1.1-.5l.4-8.2c9.7-13.6,15.4-5.6,23.1-6.8,2.8-.7,5-2.6,6.8-5.6.7-1.2.7-1.8-.9-1.1-5.6,1.2-10.1-1.1-14.6-.5-5.3.7-10.1,3.2-14.1,10.4l.6-10.8,1.7-2.3c1.9,2.3,4.9,1.8,5.8-1.2,1.6,1.9,4.5,2,5.7-.4,2.7,3.1,6.1-1.4,2.2-2.6l2.3-1.1c1.8,2,4.9,1.6,5.2-1.4h0c.2-.1.5-.1.7-.2.5.4,1.2.7,2,.7,1.6,0,3-1.2,3-2.7,0-1.5-1.3-2.7-3-2.7s-2.6.9-2.9,2.1c-.4,0-.7,0-1,.2-1.3-1.7-4.3-.7-4.8,2-.7-.1-1.3-.1-1.9.3-2.1-.9-3.4-.3-5.3,1.3-1,.9-1.8,1.3-2.8,1.5-1.2-1.6-3.2-1.3-4.8.9-.4.1-.6-.4-.3-.8l2.8-2.4c2.3,1.9,4.7.7,4.2-1.1,2.4,1,4.3-.1,4.1-2.4,2.3,2,4.9.6,4.9-2.3,2.1,2.1,5.4.9,5.4-2,1.5,2.3,4.3,2.5,5.8,1.6.7-.4,1.3-1.2.7-1.9-.2-.4-.6-.3-.9-.6.4-1.4-1.4-2-4.6-1.9-4.8.2-10.9,3.2-16.7,6.2l-.3-.6c.7-.7,1.7-1.4,2.8-2.7,1.8.4,3.2,0,3.6-2.1l.9-.4c1.8,1,3.1,0,3.9-1.4,1,0,1.9-.2,2.7-.9.5-.7,1.8.8,3.6.2,2.2-.6,2.1-3.2-.2-3.9-.8-.2-1.8,0-2.6,1-.2.2-.3.2-.6.1h0c0-1-.9-1.8-2-1.8s-2,.9-2,2,0,.6.2.9c-.2,0-.3.2-.4.4-.1-1-1-1.8-2.1-1.8s-2.1.9-2.1,2.1.2,1.1.6,1.5c-.5-.3-.8-.1-.9.5h0c0-1.2-.9-2.1-2-2.1s-2,.9-2,2c0,.6.3,1.1.7,1.5h0c-.2.4-.5.5-.9.5h0c-3.6-3.4-7,1.2-3.7,3.8-1.4,0-3.3,1.2-2,4.2l-2.6,2.1.7-11.8c0-1.2-.2-2.1-.7-2.3-1.1-.5-3.2-.4-5,.4-.5.2-1.1.6-1.6,1.6-1.7,3.2-5.9,13.2-6.4,16,0,.3,0,.5,0,.6,0,.4.8-.3,1.4-.8,1.4-1,3.4-2.9,4.8-4l-.7,14.5c-6.3-9.7-15-10.1-21.4-6.3-3.8,2.6-4.9,6-9.2,9.9,1.4-.1,2.5-.4,3.6-1.5,0,2-.4,5.7.9,7.7-.5,2.8,2.8,4.6,1.3,8.9.8-.6,1.7-.9,2-3.7,2.4,2.2,5.7,3.2,8.8,2.7-1.3.3-2.3.9-2.6,1.6l-9.6,19c-.2.2,0,1.2.8.6l12-9.3c.7-.6,1.2-.5,1.6.2l11.1,17.6,4.5-.4,1.1-18.5c0-.9.6-1.4,1.3-1.9.9-.7,1.1-1.3,1.7-.2l6.6,12.6h0ZM698.3,202.7c-3.4-.8-7.8-1.3-12.8,2.4,10.5-3.2,10.2,1.1,16.3-1.1.4-.2.7-.3.6-.5-.1-.4-.7,0-4.1-.8h0ZM672.3,207.8l-.3,6.2c-1.3-2.9-2.9-5.4-4.9-7.3-3.4-3.3-8.9-5.1-13-1.8-1.6,1.3-2.6,3.1-2.8,4.9-.4,3.3,1.3,6.6,5.1,7.2,2.4,0,4.2-1.2,4.3-3.5,1.1-.3,1.8-1.3,1.7-2.6,2.8,0,3.5,2.8,2.6,5.7-1,3.3-4.3,6.6-9.1,6-2.1-.2-4.1-1.2-5.8-2.8.4-.2.7-.7.7-1.2,0-.8-.6-1.4-1.4-1.4s-.8.2-1,.5c-.7-1.2-1.3-2.5-1.6-4,.2,0,.4.1.6.1.9,0,1.6-.7,1.6-1.6s-.7-1.6-1.6-1.6-.6,0-.8.2c0-.5,0-1,.1-1.5,0-1,.3-2,.6-2.9.3.5.9.9,1.6.9,1.1,0,1.9-.9,1.9-1.9s-.9-1.9-1.9-1.9h0c.9-1.2,2-2.3,3.2-3.1,0,1.1.9,1.9,1.9,1.9s1.9-.9,1.9-1.9-.3-1.1-.7-1.5c1.1-.4,2.3-.6,3.5-.6s.9,0,1.3,0c-.2.3-.3.6-.3.9,0,.8.7,1.5,1.5,1.5s1.5-.7,1.5-1.5,0-.3,0-.4c4.3,1.4,7.2,4.9,9.7,8.8h0ZM671.9,215.9l-1.1,22.2c-.1,1-.6.6-.8,0l-6.6-13.8c-.6-.9-2.5-1.2-4.2-1,3.3-.8,6.2-3.2,7.2-7.8,1.9-3.2-.5-3.3-.3-6.2l-.6,1.9c-.8-1.3-2.1-1.8-4.1-1.5,1.3,4.3-5,4.1-5-.1.2-3.1,3.1-4.5,5.2-4.5,4,.1,7.3,4,10.3,10.8h0ZM669.4,247l-11.9-20.2c-2.1-2.4,5.1-2.8,5.4-1.2l7.2,16.2c.8,1.4,0,2.1-.7.9l-5.1-10.6c-.3-.6-1.7.3-1.3,1l6.8,12.9c.8,1.1-.1,1.6-.4,1.1h0ZM678.2,231.2c-.9.6-1-.9-.4-1.4l13.7-12.8c1.4-1.4,2,.4.8,1.4l-14.1,12.8h0ZM680.3,226.1c-.6.5-1.2-.5-.2-1.4l10.9-12.1c.8-1,1.7.1.6,1.2l-11.3,12.2h0ZM674.8,180.8c-.2-1.4,4.5-2.5,4.1-.6l-1.7,40.7c-.2,1.1-1.1,2.5-1.3,1.7l1.6-32.7c0-.7-1.1-.4-1.4.2l-1.4,30.7c-.1,2.8-1.3-.4-1.2-1.8l1.3-38.2"/>
          <path id="path110" class="cls-3" d="M631,199.6c1.9-1.3,3.6-2.6,4.7-4.4-2.6.8-4.8,2.4-6.5,4.1-.3,0-.7,0-1-.1,1.9-1.5,3.6-3.1,4.5-5.1-2.7,1.1-4.8,3-6.3,5h-1c1.6-1.8,3-3.5,3.6-5.6-2.5,1.4-4.2,3.5-5.4,5.7-.3,0-.6,0-1,.1,1.5-1.9,2.7-3.7,3.2-5.9-2.4,1.6-4,3.9-5,6.1-.4,0-.7.1-1.1.2,1.3-1.9,2.5-3.8,2.8-6-2.3,1.8-3.7,4.1-4.6,6.4-.4.1-.8.2-1.1.3,1.2-2,2.1-3.9,2.3-6-2.1,1.9-3.4,4.3-4.1,6.6-.3.1-.7.3-1,.4,1.1-1.9,2-3.9,2.1-5.9-2.1,1.9-3.4,4.4-3.9,6.8-.2.1-.5.2-.7.4.2-.5.3-1.1.3-1.6-1,.8-1.7,1.7-2.1,2.6-.4.2-.7.4-1,.6,0-.5.1-1,.2-1.5,1.8-1.4,3.6-3.2,4.6-5.6-1.6.7-2.9,1.8-4.1,3.1.1-.5.2-1,.4-1.5,1.8-.9,3.9-2.6,4.8-4.6-1.6.4-2.9,1.4-4.3,2.6.1-.4.2-.9.4-1.3,1.8-.9,3.9-2.5,4.9-4.6-1.6.3-2.8,1.2-4.2,2.3.1-.4.3-.8.4-1.3,1.8-.9,3.8-2.4,4.8-4.4-1.5.2-2.7,1-4,2,.2-.4.3-.9.5-1.3,1.8-.9,3.5-2.2,4.8-4-1.4.3-2.6.9-3.9,1.6.2-.4.4-.9.5-1.3,1.6-.9,3.2-2.2,4.3-4-1.5.2-2.7.9-3.9,1.8h0c1.1-1.6,2.6-4,2.6-6.7-1.8,1.3-3,3.9-3.5,5.8h-.1c0,0,0,0-.1.1-.1-1.5-.4-2.9-1.1-4.3-.6,2.3-.4,4.6-.1,6.8-.2.4-.4.9-.5,1.3-.4-1.6-.9-3-1.9-4.3-.3,2.4.2,4.6,1,6.6-.1.4-.3.8-.4,1.2-.5-1.7-1-3.2-2.1-4.4-.2,2.3.4,4.9,1.3,6.7-.1.4-.2.8-.4,1.2-.4-1-.9-2.3-2.2-3.5,0,2.6.7,4.3,1.5,5.6-.1.5-.3.9-.4,1.4-.5-1.4-1-2.6-1.9-3.5-.2,2,.4,4.3,1.3,5.9,0,.3-.2.7-.3,1-.3-.8-.7-1.5-1.4-2.3-.2,2,.3,3.2.9,4.3-.2.7-.4,1.5-.5,2.2-.3-.9-.6-1.9-.9-2.8.2-1,.1-1.9,0-2.8-.2.2-.4.5-.6.9,0-.2-.1-.4-.2-.6.9-1.4,1.4-2.9,1.5-4.3-.6.4-1.4,1.2-2.2,2.3,0-.2-.1-.4-.2-.6,1.2-1.5,2-3,2.1-4.6-.8.4-1.9,1.2-2.9,2.6-.1-.3-.2-.5-.3-.8,1.9-1.6,2.5-2.8,2.8-4.8-2,1.6-2.8,2.5-3.4,3.3-.1-.3-.2-.6-.4-.9,2-1.8,3.1-3.3,3.3-5.3-1.3,1-2.7,2.4-3.8,4-.1-.3-.3-.6-.4-1,2-1.7,3.4-3.6,4.1-5.5-1.2.7-3,2.1-4.7,4.1-.1-.3-.2-.5-.3-.8,2.1-1.9,3.7-3.9,4.4-5.8-1.2.6-3.2,2.1-4.9,4.5-.1-.3-.3-.7-.4-1,2.2-1.8,3.8-3.6,4.5-5.5-1.3.6-3.2,1.8-5.1,4.2-.2-.3-.3-.7-.5-1,2.1-1.6,3.6-3.3,4.3-5.2-1.2.4-3,1.6-4.7,4l.2.8c-.2-.4-.3-.7-.5-1v-1c1.9-1.4,3.3-2.9,3.9-4.6-1.2.4-3,1.8-4.6,4h0s-.1-.3-.1-.3v-.3c.1,0,0,0,0,0,1.4-1.7,2.3-3.4,2.5-5.2-.9.5-2.2,2-3.1,4.2.4-3.6.1-5-.6-6-.9,1.3-.9,3.5-.5,5.4-1.2-1-2.4-1.6-3.2-1.7.6,1.2,1.5,2.2,2.7,3.1h0c-1.1-.3-2.1-.4-3.1-.5.9,1.2,2.3,1.9,4,2.5l.3.7c-1.8-.8-3.4-1.1-4.4-1,1.2,1.4,3.1,2.3,5.3,3,.1.3.2.5.4.8-2.1-.9-4-1.3-5.2-1.4,1.3,1.4,3.4,2.4,5.9,2.9.1.3.3.6.4.9-2.4-.9-4.6-1.3-5.9-1.3,1.5,1.4,3.8,2.2,6.5,2.7.1.3.2.5.3.8-2.4-.8-4.5-1.1-5.9-1.1,1.6,1.4,3.9,2.3,6.6,2.8.1.3.3.6.4.9-2.3-.8-4.4-1-5.7-1,1.5,1.4,3.8,2.3,6.4,2.7l.2.6c-2.1-.6-4-.7-5.2-.6,1.4,1.2,3.4,1.9,5.8,2.1.1.3.2.6.4.9-1.9-.7-3.7-.9-4.7-.9,1.2,1.2,3.1,2.1,5.3,2.4.1.3.2.6.3.9-1.2-.5-2.4-.7-3.1-.7.9,1.2,2.3,2.2,4,3l.3.8c-1.1-.7-2.1-.9-2.8-1,.7,1.2,1.9,2.2,3.5,3h0c.2.6.4,1.2.6,1.8-.9-1-1.9-1.6-2.6-1.9.3,1,.9,2,1.7,3l-.3.2h-.1c-.4-.1-.8-.4-1.2-.6-.4-1.9-1.3-3.9-3.4-5.4,0,1.6.6,3.1,1.6,4.6-.3-.1-.6-.3-1-.4-.5-2.1-1.6-4.2-3.7-5.9,0,1.8.9,3.5,1.9,5.2-.4-.1-.8-.3-1.2-.4-.4-2-1.3-4.1-3.1-5.8-.1,1.8.6,3.5,1.5,5.3-.3-.1-.7-.2-1-.3-.4-2.1-1.3-4.2-3.2-6-.1,1.9.6,3.7,1.6,5.6-.3,0-.6-.1-.9-.2-.4-2.1-1.2-4.1-3.2-5.9-.1,2,.6,3.7,1.6,5.6-.3,0-.7-.1-1-.2-.4-2.1-1.3-4.1-3.3-5.8,0,2,.7,3.7,1.7,5.5-.4,0-.8-.2-1.3-.2-.2-1.9-.9-3.8-2.9-5.5-.2,1.9.5,3.4,1.5,5.3-.8-.1-1.6-.3-2.4-.4h1.2c-.4-1.8-1.5-3.4-3.6-4.9,0,1.9,1.1,3.2,2.3,4.9-.4,0-.8-.1-1.2-.2-.7-1.6-1.7-3.2-4-4.5,0,1.6.9,2.9,2.2,4.3-.3,0-.6,0-.9-.1-.9-1.4-2.4-2.6-4.8-3.6.2,1.4,1.2,2.3,2.5,3.3-.4,0-.8,0-1.2-.1-.9-1.1-2.4-2-4.7-2.2.2.7.8,1.4,2.1,2.3-1.2,0-2.8.1-4.5.6,1.1.7,2.8,1.1,4.6,1-1,.7-2,1.6-2.3,2.5,2.3-.2,3.6-1.1,4.3-2.3h1.2c-1.5,1-2.6,2-2.9,3.2,1.4-.2,3.1-1.1,4.9-2.9.3,0,.7,0,1,.1-1.5,1-2.7,2.2-3.3,3.5,1.4-.2,3.2-1.3,5.3-3.3.2,0,.5,0,.7,0-1.3,1-2.3,2.1-3.2,3.7,1.4-.3,3.2-1.4,5.1-3.4.3,0,.7.1,1,.1-2,1.4-3.2,2.5-3.8,3.6,1.6-.3,3.4-1.2,5.6-3.3.3,0,.6.1.8.1-2,1.4-3.1,2.7-3.6,3.8,2-.6,3.7-1.6,5.5-3.4.3,0,.5.1.7.2-2,1.5-3.2,2.9-3.7,4.1,2-.6,3.8-1.8,5.4-3.7l.9.2c-2.2,1.6-3.3,2.7-3.8,3.9,2.1-.6,3.6-1.5,5.4-3.5.2,0,.5.1.7.2-2.1,1.5-3,2.6-3.4,3.8,2-.6,3.5-1.4,5.1-3.3.3,0,.5.2.8.3-1.4.9-2.5,1.8-3.2,3.2,2.1-.4,3.5-1.4,4.7-2.7.2,0,.5.2.7.3-1.1.9-2.3,1.7-3,2.9,2-.3,3.2-1.3,4.3-2.4.4.2.8.4,1.2.5-.4,0-.8,0-1.3.1.3.3.6.6.9.8l.4,1.1c-.8-.2-1.7-.3-2.7-.1.2.2.4.5.7.7-.5,0-.9.1-1.4.2-.9-.3-1.8-.5-2.9-.4.2.3.5.6.7.8-.2,0-.4,0-.6.1-1-.9-2.8-1.6-5.4-1.8.7,1.1,1.7,1.6,3.1,2.3-.4.1-.8.2-1.1.3-1.2-1.2-2.7-1.9-4.9-1.9.8,1.3,1.9,1.9,3.2,2.5-.3.1-.6.2-1,.3-1.4-1.2-3-1.9-5.2-1.8.9,1.3,2.2,1.8,3.7,2.4-.3.1-.6.2-.9.4-1.6-1.1-3.3-1.8-5.7-1.4,1.1,1.2,2.5,1.7,4.1,2.1-.3.2-.7.3-1,.5h0c-1.6-1-3.6-1.5-5.9-.9,1.2,1.1,2.7,1.5,4.3,1.7-.4.2-.8.4-1.2.6-1.6-.9-3.2-1.3-5.4-.7,1.1,1.1,2.4,1.4,3.9,1.6-.3.1-.5.3-.8.5-1.6-.6-3.4-.8-5.5,0,1.1.8,2.3,1,3.7,1.1-.2.2-.5.3-.8.5-1.6-.4-3.3-.3-5.1.7,1.2.7,2.5.8,3.9.7-1.2.8-2.5,2.1-3.5,3.6,1.5-.1,3.8-1.4,5.2-3.1-1.1,1.9-1.9,3.6-1.7,5.7,2-1.8,2.9-3.9,3.3-6,.3-.2.5-.4.8-.6-.9,2.4-.8,3.8-.5,5,1.3-2.2,1.8-3.5,2.1-6.1.3-.2.6-.4.9-.5-.7,2.2-.6,3.5-.4,4.8,1-1.7,1.6-3,1.9-5.7.2-.1.5-.3.7-.4-.7,2.8-.6,3.9-.6,4.9,1.1-1.7,1.8-3,2.2-5.8.3-.1.5-.3.8-.4-.9,2.8-.9,3.9-.9,4.9,1.2-1.6,2-2.9,2.6-5.7.3-.1.6-.3,1-.4-1.2,2.6-1.3,3.8-1.4,4.8,1.4-1.6,2.3-2.7,3.1-5.4.4-.1.7-.2,1.1-.4-1.9,2.8-1.9,3.9-2.2,5,1.9-1.5,2.6-2.6,4.3-5.6.4-.1.8-.2,1.2-.3-2.1,2.3-2.2,3-2.8,4.2,2.2-1.4,3-1.8,5.1-4.6.2,0,.4,0,.6-.1-.6.8-.8,1.4-1.2,2.1,1.5-.9,2.4-1.4,3.5-2.5.5,0,1.1-.1,1.6-.2l.2.8c-.9.2-1.9.6-2.9,1.1.8.1,1.8.1,2.7.2-.2.1-.4.3-.5.4-1.9,0-3.7.3-5.9,1.5,1.2.1,2.8.2,3.9.2-.2.2-.4.4-.6.6-2.6-.2-4.9.2-6.2,1,2.2.3,3.4.2,4.9.2-.2.2-.4.4-.6.6-2.9-.2-5.2,0-6.6.9,2.2.7,3.5.6,5.2.6-.2.2-.4.5-.7.7-2.9-.3-5.2-.2-6.6.6,2.3.8,3.6.8,5.4.7-.3.3-.6.6-.8,1-2.3-.5-4.3-.5-6.5.2,1.9.9,3.6.9,5.5.9-.2.3-.5.6-.7,1-3.1-.5-5.1-.2-6.6.4,2.1,1,3.8,1,5.6,1-.2.3-.4.6-.6,1-3.2-.6-4.7-.7-6.2,0,1.5,1.3,3.1,1.4,5.4,1.3-.2.3-.4.6-.6.9-3.2-.5-4.6-.4-6.2.3,1.6,1.4,2.9,1.3,5.4,1.2-.2.3-.4.7-.5,1-2.6-.4-4.7-.3-6,.4,2,1.3,4.1,1.1,5.3.9-.1.3-.3.5-.4.8-1.6.7-2.9,1.9-3.9,4,1.7-.1,3.5-1.6,5-2.9-.2,1.9-.3,4.2.6,5.6,1-1.6,1-4.1.8-6.8.1-.2.2-.5.3-.7,0,1.8.4,3.6,1.2,4.7.8-1.7.5-4.4-.1-7,.1-.2.2-.4.3-.6.5,3,1.1,4.1,1.7,5,.6-2.1.3-4.1-.6-6.9.2-.3.4-.6.6-.9.4,3.2,1.1,4.3,1.6,5.3.6-2.1.4-4.1-.6-6.9.2-.3.5-.7.7-1,.2,3.6.9,4.8,1.4,5.8.7-2.2.5-4.2-.3-7.2.3-.3.6-.7.8-1,.1,3.3.6,4.9,1.1,5.9.5-1.9.6-4.2.3-7.5.2-.2.4-.5.7-.7-.3,3.5,0,5.2.5,6.2.7-1.9,1.1-4.3,1.1-7.8.3-.3.8-.5,1.1-.8l-.8,29.5h1.2v-1.5c.7-.4,1.5-1,2.1-1.3.4.2,3.1,1.9,3.2,1.9.1-.1-.2-.6-.7-1.2.7-.4,1.5-1.1,2.2-1.4.8.4,2,1.3,2.7,1.7l.2,8.1h1.2c-.3-11.7-.6-23.2-.9-34.9.2.1.4.3.6.4,0-.8-.2-1.5-.5-2.3.4.4.8.7,1.1,1.1-.3,1.6-.6,3.2.6,4.3.6-.8.7-1.8.8-2.9.2.3.5.5.7.8-.4,1.8-.6,3.7.4,5.1.6-.9.8-2.1.9-3.4.3.3.5.7.8,1-.5,1.8-.9,3.7,0,5.2.7-.9,1-2.1,1.2-3.5.2.3.5.7.7,1-.7,1.9-1.2,4-.4,5.6.8-1,1.2-2.3,1.4-3.9.2.4.4.7.6,1.1-.7,1.9-1.4,4.2-.5,6,.9-1,1.3-2.2,1.6-3.9.2.4.3.7.5,1.1h-.1c-.5,2.5-1,4.7-.5,6.4.7-.9,1.2-2.5,1.4-4.7.1.3.2.5.3.8,0,2.1.3,3.4,1.2,4.3.8-1.1.7-2.3.2-4.1,1.4,1.1,2.6,1.7,3.9,1.4-.5-1.2-1.6-2.1-3.4-2.8,0-.2-.2-.4-.3-.6v.2c2.7,1,4.5,1.5,6,.9-1.2-1.2-3.2-1.8-6.5-2-.2-.4-.3-.7-.5-1,2.5.7,4.8,1.4,6.6.9-1.3-1.2-3.7-1.9-7.1-2.1-.1-.3-.3-.6-.4-.8h0c2.6.7,4.6.9,6.5.3-1.3-1.1-3.8-1.7-7.3-1.7-.2-.4-.4-.7-.6-1.1,2.5.6,4.5.8,6.3.2-1.3-1.1-3.8-1.6-7.2-1.6-.2-.4-.5-.7-.7-1.1,2.2.4,4,.5,5.6-.2-1.2-1-3.4-1.4-6.6-1.1-.3-.3-.5-.7-.8-1,1.9.1,3.3.3,4.8-.2-1.1-1-3-1.4-5.9-1.1-.3-.3-.6-.6-.8-.9,1,0,1.9,0,2.8-.4-.9-.7-2.3-1.1-4.2-1.1-.3-.3-.7-.6-1-.9.6,0,1.2,0,1.9-.3-.8-.7-2-1.2-3.6-1.3-.5-.4-1-.8-1.5-1.2h0c.8.2,1.6.5,2.5.5-.4-.7-1.1-1.4-2-2v-.4c.5.2.8.3,1.2.4,0-.3-.2-.6-.4-.9.2,0,.5,0,.7,0,.4,1.4,1,2.6,1.9,3.4,0-1,0-2-.2-3.1.2,0,.4,0,.5.1.4,2.2,1,4.2,2.3,5.4.1-1.5-.1-3.2-.6-5,.3,0,.6.2.9.3.3,2.4.9,4.7,2.4,6,.1-1.7-.2-3.5-.7-5.5.4.1.8.3,1.1.4.1,2.4.5,4.6,1.8,6,.3-1.6.2-3.4-.1-5.4.3.1.6.3,1,.4.1,2.8.5,5.4,1.8,7,.3-1.9.2-3.9-.1-6.2.3.2.6.3.9.5.1,2.9.5,5.7,1.8,7.4.3-1.9.2-4.1-.1-6.4.2.1.4.3.7.4.1,2.9.5,5.7,1.8,7.4.3-1.9.2-3.9-.1-6.1.3.2.6.4.8.7,0,2.7.1,5.3,1.2,6.9.4-1.7.5-3.5.4-5.4.2.2.4.4.6.6-.2,2.3,0,4.5,1,5.9.4-1.2.6-2.6.6-4,.9,1.6,2.3,3.6,3.8,4.2-.2-2.2-1.3-3.7-2.6-4.8l.4-.4c1.4.5,2.8.8,4.1.7-1.3-1.6-2.8-2.2-5.3-2.6-.2-.3-.4-.5-.7-.8,2.1.4,4.1.6,5.8,0-2.6-1.2-5-1.5-7.2-1.4-.2-.2-.5-.4-.7-.7,2.1.1,4,0,5.7-.6-2.6-.9-5.1-.9-7.3-.6-.3-.2-.6-.4-.9-.7,2.1-.1,4-.4,5.7-1.3-2.7-.6-5.2-.4-7.4.2-.4-.2-.7-.4-1.1-.6,2.1-.2,4-.6,5.6-1.6-2.7-.4-5.3,0-7.5.6-.3-.2-.7-.3-1-.5,2.2-.3,4.2-.8,5.9-1.8-2.9-.5-5.6.1-8,.9-.3-.1-.6-.2-.8-.3,1.9-.5,3.8-1.1,5.2-2.2-2.5-.2-5.1.6-7.1,1.6-.4-.1-.8-.2-1.1-.3,1.5-.4,3.2-1.1,4.6-2.4-2.6-.1-4.9.8-6.6,1.9-.5-.1-1-.2-1.5-.3,1.8-.5,3.3-1.1,4.6-2.3-2.1-.2-4.1.3-5.8,1.1l-.9-.4c0,.1,0,.2,0,.3l-.9-.6c1.2,0,2.6-.2,3.9-.9-1.2-.6-2.6-.4-4-.2.8-.4,1.6-.9,2.4-1.3.9.8,2.1.9,3.5.9-.4-.7-1.2-1.3-1.9-1.7.3-.1.6-.2.9-.3.8.9,2,1.4,3.6,1.8-.3-1-1-1.8-1.9-2.4.2,0,.5-.1.7-.2.9,1.1,2.1,1.9,3.4,2.5,0-1.1-.4-2.1-1.4-3,.3,0,.5-.1.8-.2.9,1.6,2,2.8,3.4,3.8-.1-1.5-.7-2.8-1.8-4,.4,0,.8,0,1.2-.1.7,2,1.7,3.4,3,4.7,0-1.7-.3-3.3-1.3-4.8.4,0,.9,0,1.4,0,.3,2.2.8,3.8,2,5.2.2-1.7.2-3.3-.4-5.1.2,0,.5,0,.8.1,0,2.4.5,4.1,1.6,5.6.4-1.7.5-3.5-.1-5.3.3,0,.6.1.8.2,0,2.2.4,3.9,1.4,5.3.4-1.6.6-3.1.2-4.7.2,0,.4.2.6.3.2,2,.8,3.5,1.8,4.8.2-1.4.3-2.7,0-4.1,1.4,2,2.8,3.8,4.8,4.8-.8-2.4-2.1-4.3-3.7-5.9,1.3,0,2.6-.1,3.7-.8-2-1.1-3.8-1-5.6-.7-.3-.2-.6-.3-1-.5,1.7-.6,3.3-1.2,4.4-2.5-2.4-.1-4.3.9-6,1.9-.3,0-.6-.2-.9-.2h0ZM609.7,228.4c-.8,1-2,2.5-1.9,2.6.3,0,1.3-.8,2.3-1.4h.2c0,0,.1,5.6.1,5.6-.6-.8-2.1-2.2-2.8-3.1-.1-.1-.3-.2-.4,0-.1.2-.3.4-.5.6-.7-.8-1.7-1.8-2.3-2.5-.1-.1-.2-.2-.4,0-.6.8-1.8,1.9-2.5,2.7v-4.6c.8-.4,1.7-1.1,2.4-1.4.6.3,1.4.8,2.1,1.3-.6.7-1.1,1.2-.9,1.4.3,0,2.7-1.6,3.2-1.9.4.2.8.5,1.3.8h0ZM607.1,245.2c.1-.2.3-.1.4,0,1,1.2,3.4,3.3,3,3.7-.3,0-2.1-1.4-3.2-1.9-1.1.5-2.8,1.9-3.2,1.9-.4-.3,2-2.4,3-3.7h0ZM601.3,243.5v-3.6c.8-.4,1.8-1.2,2.5-1.5.6.3,3,1.9,3.2,1.9.2-.2-.3-.8-1-1.5.6-.4,1.4-.9,1.9-1.2.8.4,1.9,1.2,2.6,1.6v4.4c-.6-.8-1.8-1.9-2.4-2.7-.1-.1-.2-.2-.4,0-.6.8-1.7,1.8-2.4,2.6-.6-.7-1.4-1.4-1.9-2-.1-.1-.2-.2-.4,0-.4.6-1.2,1.3-1.8,1.9h0ZM605.5,238.3c-.6-.6-1.1-1.2-1.5-1.6-.1-.1-.2-.2-.4,0-.5.7-1.5,1.6-2.2,2.3v-5.2c.9-.4,2-1.3,2.8-1.7.6.3,1.4.8,2,1.2-1.1,1.1-2.3,2.3-2,2.6.4,0,2.1-1.4,3.2-1.9.9.4,2.4,1.6,3,1.9v2.6c-.6-.8-1.7-1.9-2.3-2.6-.1-.1-.2-.2-.4,0-.6.7-1.6,1.6-2.2,2.4h0ZM606.6,227.6c-.7-.8-1.8-1.8-2.3-2.5-.1-.1-.2-.2-.4,0-.5.6-1.4,1.5-2.1,2.2v-4.6c.7-.4,1.5-.9,2-1.2.7.3,1.6,1,2.4,1.4-.8.8-1.4,1.6-1.2,1.7.4,0,2.1-1.4,3.2-1.9.6.3,1.4.9,2.1,1.3v3.6c-.5-.6-1.2-1.3-1.6-1.8-.1-.1-.2-.2-.4,0-.4.5-1.1,1.2-1.7,1.8h0ZM601.9,221.6v-5.3c.4,0,.6-.1.9-.4.1,0,.2-.2.3-.3.1.1.3.1.6,0-.1,0-.2.1-.3.2-.4.4-.7.8-.5,1.1.2.2.7.1,1.1-.2.4-.4.7-.8.5-1.1-.1-.1-.3-.1-.6,0,.1,0,.2-.1.3-.2.2-.1.3-.3.4-.4,0,0,0,.2,0,.2.2.2.7.1,1.1-.2.2-.2.4-.4.5-.6.2,0,.5-.1.8-.4.1,0,.2-.2.3-.3.2.2.7.1,1.1-.2,0,0,.1-.1.2-.2h0c0,.1,0,.2.1.3,0,0-.1,0-.1.1-.2.1-.3.3-.4.4,0,0,0-.2,0-.2-.2-.2-.7-.1-1.1.2-.3.2-.5.5-.5.7-.2,0-.6,0-1,.3-.3.3-.5.6-.6.9-.2,0-.4.2-.7.3-.4.4-.7.8-.5,1.1.2.2.7.1,1.1-.2.3-.3.5-.6.6-.9.2,0,.4-.2.7-.3.3-.2.5-.5.5-.7.1,0,.2,0,.4,0-.1,0-.2.1-.3.2-.4.4-.7.8-.5,1.1s.7.1,1.1-.2c.4-.4.7-.8.5-1.1-.1-.1-.3-.1-.6,0,.1,0,.2-.1.3-.2.2-.1.3-.3.4-.4,0,0,0,.2,0,.2.2.2.6.1,1-.1.2.5.5,1.1.8,1.5l.2,6.9c-.6-.7-1.4-1.5-1.9-2-.1-.1-.2-.2-.4,0-.4.4-.9,1-1.4,1.5-.7-.8-1.9-2-2.6-2.8-.1-.1-.2-.2-.4,0-.4.5-1.1,1.2-1.6,1.8h0Z"/>
          <path id="path112" class="cls-2" d="M631,199.6c1.9-1.3,3.6-2.6,4.7-4.4-2.6.8-4.8,2.4-6.5,4.1-.3,0-.7,0-1-.1,1.9-1.5,3.6-3.1,4.5-5.1-2.7,1.1-4.8,3-6.3,5h-1c1.6-1.8,3-3.5,3.6-5.6-2.5,1.4-4.2,3.5-5.4,5.7-.3,0-.6,0-1,.1,1.5-1.9,2.7-3.7,3.2-5.9-2.4,1.6-4,3.9-5,6.1-.4,0-.7.1-1.1.2,1.3-1.9,2.5-3.8,2.8-6-2.3,1.8-3.7,4.1-4.6,6.4-.4.1-.8.2-1.1.3,1.2-2,2.1-3.9,2.3-6-2.1,1.9-3.4,4.3-4.1,6.6-.3.1-.7.3-1,.4,1.1-1.9,2-3.9,2.1-5.9-2.1,1.9-3.4,4.4-3.9,6.8-.2.1-.5.2-.7.4.2-.5.3-1.1.3-1.6-1,.8-1.7,1.7-2.1,2.6-.4.2-.7.4-1,.6,0-.5.1-1,.2-1.5,1.8-1.4,3.6-3.2,4.6-5.6-1.6.7-2.9,1.8-4.1,3.1.1-.5.2-1,.4-1.5,1.8-.9,3.9-2.6,4.8-4.6-1.6.4-2.9,1.4-4.3,2.6.1-.4.2-.9.4-1.3,1.8-.9,3.9-2.5,4.9-4.6-1.6.3-2.8,1.2-4.2,2.3.1-.4.3-.8.4-1.3,1.8-.9,3.8-2.4,4.8-4.4-1.5.2-2.7,1-4,2,.2-.4.3-.9.5-1.3,1.8-.9,3.5-2.2,4.8-4-1.4.3-2.6.9-3.9,1.6.2-.4.4-.9.5-1.3,1.6-.9,3.2-2.2,4.3-4-1.5.2-2.7.9-3.9,1.8h0c1.1-1.6,2.6-4,2.6-6.7-1.8,1.3-3,3.9-3.5,5.8h-.1c0,0,0,0-.1.1-.1-1.5-.4-2.9-1.1-4.3-.6,2.3-.4,4.6-.1,6.8-.2.4-.4.9-.5,1.3-.4-1.6-.9-3-1.9-4.3-.3,2.4.2,4.6,1,6.6-.1.4-.3.8-.4,1.2-.5-1.7-1-3.2-2.1-4.4-.2,2.3.4,4.9,1.3,6.7-.1.4-.2.8-.4,1.2-.4-1-.9-2.3-2.2-3.5,0,2.6.7,4.3,1.5,5.6-.1.5-.3.9-.4,1.4-.5-1.4-1-2.6-1.9-3.5-.2,2,.4,4.3,1.3,5.9,0,.3-.2.7-.3,1-.3-.8-.7-1.5-1.4-2.3-.2,2,.3,3.2.9,4.3-.2.7-.4,1.5-.5,2.2-.3-.9-.6-1.9-.9-2.8.2-1,.1-1.9,0-2.8-.2.2-.4.5-.6.9,0-.2-.1-.4-.2-.6.9-1.4,1.4-2.9,1.5-4.3-.6.4-1.4,1.2-2.2,2.3,0-.2-.1-.4-.2-.6,1.2-1.5,2-3,2.1-4.6-.8.4-1.9,1.2-2.9,2.6-.1-.3-.2-.5-.3-.8,1.9-1.6,2.5-2.8,2.8-4.8-2,1.6-2.8,2.5-3.4,3.3-.1-.3-.2-.6-.4-.9,2-1.8,3.1-3.3,3.3-5.3-1.3,1-2.7,2.4-3.8,4-.1-.3-.3-.6-.4-1,2-1.7,3.4-3.6,4.1-5.5-1.2.7-3,2.1-4.7,4.1-.1-.3-.2-.5-.3-.8,2.1-1.9,3.7-3.9,4.4-5.8-1.2.6-3.2,2.1-4.9,4.5-.1-.3-.3-.7-.4-1,2.2-1.8,3.8-3.6,4.5-5.5-1.3.6-3.2,1.8-5.1,4.2-.2-.3-.3-.7-.5-1,2.1-1.6,3.6-3.3,4.3-5.2-1.2.4-3,1.6-4.7,4l.2.8c-.2-.4-.3-.7-.5-1v-1c1.9-1.4,3.3-2.9,3.9-4.6-1.2.4-3,1.8-4.6,4h0s-.1-.3-.1-.3v-.3c.1,0,0,0,0,0,1.4-1.7,2.3-3.4,2.5-5.2-.9.5-2.2,2-3.1,4.2.4-3.6.1-5-.6-6-.9,1.3-.9,3.5-.5,5.4-1.2-1-2.4-1.6-3.2-1.7.6,1.2,1.5,2.2,2.7,3.1h0c-1.1-.3-2.1-.4-3.1-.5.9,1.2,2.3,1.9,4,2.5l.3.7c-1.8-.8-3.4-1.1-4.4-1,1.2,1.4,3.1,2.3,5.3,3,.1.3.2.5.4.8-2.1-.9-4-1.3-5.2-1.4,1.3,1.4,3.4,2.4,5.9,2.9.1.3.3.6.4.9-2.4-.9-4.6-1.3-5.9-1.3,1.5,1.4,3.8,2.2,6.5,2.7.1.3.2.5.3.8-2.4-.8-4.5-1.1-5.9-1.1,1.6,1.4,3.9,2.3,6.6,2.8.1.3.3.6.4.9-2.3-.8-4.4-1-5.7-1,1.5,1.4,3.8,2.3,6.4,2.7l.2.6c-2.1-.6-4-.7-5.2-.6,1.4,1.2,3.4,1.9,5.8,2.1.1.3.2.6.4.9-1.9-.7-3.7-.9-4.7-.9,1.2,1.2,3.1,2.1,5.3,2.4.1.3.2.6.3.9-1.2-.5-2.4-.7-3.1-.7.9,1.2,2.3,2.2,4,3l.3.8c-1.1-.7-2.1-.9-2.8-1,.7,1.2,1.9,2.2,3.5,3h0c.2.6.4,1.2.6,1.8-.9-1-1.9-1.6-2.6-1.9.3,1,.9,2,1.7,3l-.3.2h-.1c-.4-.1-.8-.4-1.2-.6-.4-1.9-1.3-3.9-3.4-5.4,0,1.6.6,3.1,1.6,4.6-.3-.1-.6-.3-1-.4-.5-2.1-1.6-4.2-3.7-5.9,0,1.8.9,3.5,1.9,5.2-.4-.1-.8-.3-1.2-.4-.4-2-1.3-4.1-3.1-5.8-.1,1.8.6,3.5,1.5,5.3-.3-.1-.7-.2-1-.3-.4-2.1-1.3-4.2-3.2-6-.1,1.9.6,3.7,1.6,5.6-.3,0-.6-.1-.9-.2-.4-2.1-1.2-4.1-3.2-5.9-.1,2,.6,3.7,1.6,5.6-.3,0-.7-.1-1-.2-.4-2.1-1.3-4.1-3.3-5.8,0,2,.7,3.7,1.7,5.5-.4,0-.8-.2-1.3-.2-.2-1.9-.9-3.8-2.9-5.5-.2,1.9.5,3.4,1.5,5.3-.8-.1-1.6-.3-2.4-.4h1.2c-.4-1.8-1.5-3.4-3.6-4.9,0,1.9,1.1,3.2,2.3,4.9-.4,0-.8-.1-1.2-.2-.7-1.6-1.7-3.2-4-4.5,0,1.6.9,2.9,2.2,4.3-.3,0-.6,0-.9-.1-.9-1.4-2.4-2.6-4.8-3.6.2,1.4,1.2,2.3,2.5,3.3-.4,0-.8,0-1.2-.1-.9-1.1-2.4-2-4.7-2.2.2.7.8,1.4,2.1,2.3-1.2,0-2.8.1-4.5.6,1.1.7,2.8,1.1,4.6,1-1,.7-2,1.6-2.3,2.5,2.3-.2,3.6-1.1,4.3-2.3h1.2c-1.5,1-2.6,2-2.9,3.2,1.4-.2,3.1-1.1,4.9-2.9.3,0,.7,0,1,.1-1.5,1-2.7,2.2-3.3,3.5,1.4-.2,3.2-1.3,5.3-3.3.2,0,.5,0,.7,0-1.3,1-2.3,2.1-3.2,3.7,1.4-.3,3.2-1.4,5.1-3.4.3,0,.7.1,1,.1-2,1.4-3.2,2.5-3.8,3.6,1.6-.3,3.4-1.2,5.6-3.3.3,0,.6.1.8.1-2,1.4-3.1,2.7-3.6,3.8,2-.6,3.7-1.6,5.5-3.4.3,0,.5.1.7.2-2,1.5-3.2,2.9-3.7,4.1,2-.6,3.8-1.8,5.4-3.7l.9.2c-2.2,1.6-3.3,2.7-3.8,3.9,2.1-.6,3.6-1.5,5.4-3.5.2,0,.5.1.7.2-2.1,1.5-3,2.6-3.4,3.8,2-.6,3.5-1.4,5.1-3.3.3,0,.5.2.8.3-1.4.9-2.5,1.8-3.2,3.2,2.1-.4,3.5-1.4,4.7-2.7.2,0,.5.2.7.3-1.1.9-2.3,1.7-3,2.9,2-.3,3.2-1.3,4.3-2.4.4.2.8.4,1.2.5-.4,0-.8,0-1.3.1.3.3.6.6.9.8l.4,1.1c-.8-.2-1.7-.3-2.7-.1.2.2.4.5.7.7-.5,0-.9.1-1.4.2-.9-.3-1.8-.5-2.9-.4.2.3.5.6.7.8-.2,0-.4,0-.6.1-1-.9-2.8-1.6-5.4-1.8.7,1.1,1.7,1.6,3.1,2.3-.4.1-.8.2-1.1.3-1.2-1.2-2.7-1.9-4.9-1.9.8,1.3,1.9,1.9,3.2,2.5-.3.1-.6.2-1,.3-1.4-1.2-3-1.9-5.2-1.8.9,1.3,2.2,1.8,3.7,2.4-.3.1-.6.2-.9.4-1.6-1.1-3.3-1.8-5.7-1.4,1.1,1.2,2.5,1.7,4.1,2.1-.3.2-.7.3-1,.5h0c-1.6-1-3.6-1.5-5.9-.9,1.2,1.1,2.7,1.5,4.3,1.7-.4.2-.8.4-1.2.6-1.6-.9-3.2-1.3-5.4-.7,1.1,1.1,2.4,1.4,3.9,1.6-.3.1-.5.3-.8.5-1.6-.6-3.4-.8-5.5,0,1.1.8,2.3,1,3.7,1.1-.2.2-.5.3-.8.5-1.6-.4-3.3-.3-5.1.7,1.2.7,2.5.8,3.9.7-1.2.8-2.5,2.1-3.5,3.6,1.5-.1,3.8-1.4,5.2-3.1-1.1,1.9-1.9,3.6-1.7,5.7,2-1.8,2.9-3.9,3.3-6,.3-.2.5-.4.8-.6-.9,2.4-.8,3.8-.5,5,1.3-2.2,1.8-3.5,2.1-6.1.3-.2.6-.4.9-.5-.7,2.2-.6,3.5-.4,4.8,1-1.7,1.6-3,1.9-5.7.2-.1.5-.3.7-.4-.7,2.8-.6,3.9-.6,4.9,1.1-1.7,1.8-3,2.2-5.8.3-.1.5-.3.8-.4-.9,2.8-.9,3.9-.9,4.9,1.2-1.6,2-2.9,2.6-5.7.3-.1.6-.3,1-.4-1.2,2.6-1.3,3.8-1.4,4.8,1.4-1.6,2.3-2.7,3.1-5.4.4-.1.7-.2,1.1-.4-1.9,2.8-1.9,3.9-2.2,5,1.9-1.5,2.6-2.6,4.3-5.6.4-.1.8-.2,1.2-.3-2.1,2.3-2.2,3-2.8,4.2,2.2-1.4,3-1.8,5.1-4.6.2,0,.4,0,.6-.1-.6.8-.8,1.4-1.2,2.1,1.5-.9,2.4-1.4,3.5-2.5.5,0,1.1-.1,1.6-.2l.2.8c-.9.2-1.9.6-2.9,1.1.8.1,1.8.1,2.7.2-.2.1-.4.3-.5.4-1.9,0-3.7.3-5.9,1.5,1.2.1,2.8.2,3.9.2-.2.2-.4.4-.6.6-2.6-.2-4.9.2-6.2,1,2.2.3,3.4.2,4.9.2-.2.2-.4.4-.6.6-2.9-.2-5.2,0-6.6.9,2.2.7,3.5.6,5.2.6-.2.2-.4.5-.7.7-2.9-.3-5.2-.2-6.6.6,2.3.8,3.6.8,5.4.7-.3.3-.6.6-.8,1-2.3-.5-4.3-.5-6.5.2,1.9.9,3.6.9,5.5.9-.2.3-.5.6-.7,1-3.1-.5-5.1-.2-6.6.4,2.1,1,3.8,1,5.6,1-.2.3-.4.6-.6,1-3.2-.6-4.7-.7-6.2,0,1.5,1.3,3.1,1.4,5.4,1.3-.2.3-.4.6-.6.9-3.2-.5-4.6-.4-6.2.3,1.6,1.4,2.9,1.3,5.4,1.2-.2.3-.4.7-.5,1-2.6-.4-4.7-.3-6,.4,2,1.3,4.1,1.1,5.3.9-.1.3-.3.5-.4.8-1.6.7-2.9,1.9-3.9,4,1.7-.1,3.5-1.6,5-2.9-.2,1.9-.3,4.2.6,5.6,1-1.6,1-4.1.8-6.8.1-.2.2-.5.3-.7,0,1.8.4,3.6,1.2,4.7.8-1.7.5-4.4-.1-7,.1-.2.2-.4.3-.6.5,3,1.1,4.1,1.7,5,.6-2.1.3-4.1-.6-6.9.2-.3.4-.6.6-.9.4,3.2,1.1,4.3,1.6,5.3.6-2.1.4-4.1-.6-6.9.2-.3.5-.7.7-1,.2,3.6.9,4.8,1.4,5.8.7-2.2.5-4.2-.3-7.2.3-.3.6-.7.8-1,.1,3.3.6,4.9,1.1,5.9.5-1.9.6-4.2.3-7.5.2-.2.4-.5.7-.7-.3,3.5,0,5.2.5,6.2.7-1.9,1.1-4.3,1.1-7.8.3-.3.8-.5,1.1-.8l-.8,29.5h1.2v-1.5c.7-.4,1.5-1,2.1-1.3.4.2,3.1,1.9,3.2,1.9.1-.1-.2-.6-.7-1.2.7-.4,1.5-1.1,2.2-1.4.8.4,2,1.3,2.7,1.7l.2,8.1h1.2c-.3-11.7-.6-23.2-.9-34.9.2.1.4.3.6.4,0-.8-.2-1.5-.5-2.3.4.4.8.7,1.1,1.1-.3,1.6-.6,3.2.6,4.3.6-.8.7-1.8.8-2.9.2.3.5.5.7.8-.4,1.8-.6,3.7.4,5.1.6-.9.8-2.1.9-3.4.3.3.5.7.8,1-.5,1.8-.9,3.7,0,5.2.7-.9,1-2.1,1.2-3.5.2.3.5.7.7,1-.7,1.9-1.2,4-.4,5.6.8-1,1.2-2.3,1.4-3.9.2.4.4.7.6,1.1-.7,1.9-1.4,4.2-.5,6,.9-1,1.3-2.2,1.6-3.9.2.4.3.7.5,1.1h-.1c-.5,2.5-1,4.7-.5,6.4.7-.9,1.2-2.5,1.4-4.7.1.3.2.5.3.8,0,2.1.3,3.4,1.2,4.3.8-1.1.7-2.3.2-4.1,1.4,1.1,2.6,1.7,3.9,1.4-.5-1.2-1.6-2.1-3.4-2.8,0-.2-.2-.4-.3-.6v.2c2.7,1,4.5,1.5,6,.9-1.2-1.2-3.2-1.8-6.5-2-.2-.4-.3-.7-.5-1,2.5.7,4.8,1.4,6.6.9-1.3-1.2-3.7-1.9-7.1-2.1-.1-.3-.3-.6-.4-.8h0c2.6.7,4.6.9,6.5.3-1.3-1.1-3.8-1.7-7.3-1.7-.2-.4-.4-.7-.6-1.1,2.5.6,4.5.8,6.3.2-1.3-1.1-3.8-1.6-7.2-1.6-.2-.4-.5-.7-.7-1.1,2.2.4,4,.5,5.6-.2-1.2-1-3.4-1.4-6.6-1.1-.3-.3-.5-.7-.8-1,1.9.1,3.3.3,4.8-.2-1.1-1-3-1.4-5.9-1.1-.3-.3-.6-.6-.8-.9,1,0,1.9,0,2.8-.4-.9-.7-2.3-1.1-4.2-1.1-.3-.3-.7-.6-1-.9.6,0,1.2,0,1.9-.3-.8-.7-2-1.2-3.6-1.3-.5-.4-1-.8-1.5-1.2h0c.8.2,1.6.5,2.5.5-.4-.7-1.1-1.4-2-2v-.4c.5.2.8.3,1.2.4,0-.3-.2-.6-.4-.9.2,0,.5,0,.7,0,.4,1.4,1,2.6,1.9,3.4,0-1,0-2-.2-3.1.2,0,.4,0,.5.1.4,2.2,1,4.2,2.3,5.4.1-1.5-.1-3.2-.6-5,.3,0,.6.2.9.3.3,2.4.9,4.7,2.4,6,.1-1.7-.2-3.5-.7-5.5.4.1.8.3,1.1.4.1,2.4.5,4.6,1.8,6,.3-1.6.2-3.4-.1-5.4.3.1.6.3,1,.4.1,2.8.5,5.4,1.8,7,.3-1.9.2-3.9-.1-6.2.3.2.6.3.9.5.1,2.9.5,5.7,1.8,7.4.3-1.9.2-4.1-.1-6.4.2.1.4.3.7.4.1,2.9.5,5.7,1.8,7.4.3-1.9.2-3.9-.1-6.1.3.2.6.4.8.7,0,2.7.1,5.3,1.2,6.9.4-1.7.5-3.5.4-5.4.2.2.4.4.6.6-.2,2.3,0,4.5,1,5.9.4-1.2.6-2.6.6-4,.9,1.6,2.3,3.6,3.8,4.2-.2-2.2-1.3-3.7-2.6-4.8l.4-.4c1.4.5,2.8.8,4.1.7-1.3-1.6-2.8-2.2-5.3-2.6-.2-.3-.4-.5-.7-.8,2.1.4,4.1.6,5.8,0-2.6-1.2-5-1.5-7.2-1.4-.2-.2-.5-.4-.7-.7,2.1.1,4,0,5.7-.6-2.6-.9-5.1-.9-7.3-.6-.3-.2-.6-.4-.9-.7,2.1-.1,4-.4,5.7-1.3-2.7-.6-5.2-.4-7.4.2-.4-.2-.7-.4-1.1-.6,2.1-.2,4-.6,5.6-1.6-2.7-.4-5.3,0-7.5.6-.3-.2-.7-.3-1-.5,2.2-.3,4.2-.8,5.9-1.8-2.9-.5-5.6.1-8,.9-.3-.1-.6-.2-.8-.3,1.9-.5,3.8-1.1,5.2-2.2-2.5-.2-5.1.6-7.1,1.6-.4-.1-.8-.2-1.1-.3,1.5-.4,3.2-1.1,4.6-2.4-2.6-.1-4.9.8-6.6,1.9-.5-.1-1-.2-1.5-.3,1.8-.5,3.3-1.1,4.6-2.3-2.1-.2-4.1.3-5.8,1.1l-.9-.4c0,.1,0,.2,0,.3l-.9-.6c1.2,0,2.6-.2,3.9-.9-1.2-.6-2.6-.4-4-.2.8-.4,1.6-.9,2.4-1.3.9.8,2.1.9,3.5.9-.4-.7-1.2-1.3-1.9-1.7.3-.1.6-.2.9-.3.8.9,2,1.4,3.6,1.8-.3-1-1-1.8-1.9-2.4.2,0,.5-.1.7-.2.9,1.1,2.1,1.9,3.4,2.5,0-1.1-.4-2.1-1.4-3,.3,0,.5-.1.8-.2.9,1.6,2,2.8,3.4,3.8-.1-1.5-.7-2.8-1.8-4,.4,0,.8,0,1.2-.1.7,2,1.7,3.4,3,4.7,0-1.7-.3-3.3-1.3-4.8.4,0,.9,0,1.4,0,.3,2.2.8,3.8,2,5.2.2-1.7.2-3.3-.4-5.1.2,0,.5,0,.8.1,0,2.4.5,4.1,1.6,5.6.4-1.7.5-3.5-.1-5.3.3,0,.6.1.8.2,0,2.2.4,3.9,1.4,5.3.4-1.6.6-3.1.2-4.7.2,0,.4.2.6.3.2,2,.8,3.5,1.8,4.8.2-1.4.3-2.7,0-4.1,1.4,2,2.8,3.8,4.8,4.8-.8-2.4-2.1-4.3-3.7-5.9,1.3,0,2.6-.1,3.7-.8-2-1.1-3.8-1-5.6-.7-.3-.2-.6-.3-1-.5,1.7-.6,3.3-1.2,4.4-2.5-2.4-.1-4.3.9-6,1.9-.3,0-.6-.2-.9-.2h0ZM609.7,228.4c-.8,1-2,2.5-1.9,2.6.3,0,1.3-.8,2.3-1.4h.2c0,0,.1,5.6.1,5.6-.6-.8-2.1-2.2-2.8-3.1-.1-.1-.3-.2-.4,0-.1.2-.3.4-.5.6-.7-.8-1.7-1.8-2.3-2.5-.1-.1-.2-.2-.4,0-.6.8-1.8,1.9-2.5,2.7v-4.6c.8-.4,1.7-1.1,2.4-1.4.6.3,1.4.8,2.1,1.3-.6.7-1.1,1.2-.9,1.4.3,0,2.7-1.6,3.2-1.9.4.2.8.5,1.3.8h0ZM607.1,245.2c.1-.2.3-.1.4,0,1,1.2,3.4,3.3,3,3.7-.3,0-2.1-1.4-3.2-1.9-1.1.5-2.8,1.9-3.2,1.9-.4-.3,2-2.4,3-3.7h0ZM601.3,243.5v-3.6c.8-.4,1.8-1.2,2.5-1.5.6.3,3,1.9,3.2,1.9.2-.2-.3-.8-1-1.5.6-.4,1.4-.9,1.9-1.2.8.4,1.9,1.2,2.6,1.6v4.4c-.6-.8-1.8-1.9-2.4-2.7-.1-.1-.2-.2-.4,0-.6.8-1.7,1.8-2.4,2.6-.6-.7-1.4-1.4-1.9-2-.1-.1-.2-.2-.4,0-.4.6-1.2,1.3-1.8,1.9h0ZM605.5,238.3c-.6-.6-1.1-1.2-1.5-1.6-.1-.1-.2-.2-.4,0-.5.7-1.5,1.6-2.2,2.3v-5.2c.9-.4,2-1.3,2.8-1.7.6.3,1.4.8,2,1.2-1.1,1.1-2.3,2.3-2,2.6.4,0,2.1-1.4,3.2-1.9.9.4,2.4,1.6,3,1.9v2.6c-.6-.8-1.7-1.9-2.3-2.6-.1-.1-.2-.2-.4,0-.6.7-1.6,1.6-2.2,2.4h0ZM606.6,227.6c-.7-.8-1.8-1.8-2.3-2.5-.1-.1-.2-.2-.4,0-.5.6-1.4,1.5-2.1,2.2v-4.6c.7-.4,1.5-.9,2-1.2.7.3,1.6,1,2.4,1.4-.8.8-1.4,1.6-1.2,1.7.4,0,2.1-1.4,3.2-1.9.6.3,1.4.9,2.1,1.3v3.6c-.5-.6-1.2-1.3-1.6-1.8-.1-.1-.2-.2-.4,0-.4.5-1.1,1.2-1.7,1.8h0ZM601.9,221.6v-5.3c.4,0,.6-.1.9-.4.1,0,.2-.2.3-.3.1.1.3.1.6,0-.1,0-.2.1-.3.2-.4.4-.7.8-.5,1.1.2.2.7.1,1.1-.2.4-.4.7-.8.5-1.1-.1-.1-.3-.1-.6,0,.1,0,.2-.1.3-.2.2-.1.3-.3.4-.4,0,0,0,.2,0,.2.2.2.7.1,1.1-.2.2-.2.4-.4.5-.6.2,0,.5-.1.8-.4.1,0,.2-.2.3-.3.2.2.7.1,1.1-.2,0,0,.1-.1.2-.2h0c0,.1,0,.2.1.3,0,0-.1,0-.1.1-.2.1-.3.3-.4.4,0,0,0-.2,0-.2-.2-.2-.7-.1-1.1.2-.3.2-.5.5-.5.7-.2,0-.6,0-1,.3-.3.3-.5.6-.6.9-.2,0-.4.2-.7.3-.4.4-.7.8-.5,1.1.2.2.7.1,1.1-.2.3-.3.5-.6.6-.9.2,0,.4-.2.7-.3.3-.2.5-.5.5-.7.1,0,.2,0,.4,0-.1,0-.2.1-.3.2-.4.4-.7.8-.5,1.1s.7.1,1.1-.2c.4-.4.7-.8.5-1.1-.1-.1-.3-.1-.6,0,.1,0,.2-.1.3-.2.2-.1.3-.3.4-.4,0,0,0,.2,0,.2.2.2.6.1,1-.1.2.5.5,1.1.8,1.5l.2,6.9c-.6-.7-1.4-1.5-1.9-2-.1-.1-.2-.2-.4,0-.4.4-.9,1-1.4,1.5-.7-.8-1.9-2-2.6-2.8-.1-.1-.2-.2-.4,0-.4.5-1.1,1.2-1.6,1.8"/>
          <path id="path114" class="cls-8" d="M693.3,230.7c-12.5,16.1-32,26.4-54,26.4s-33.6-6.6-45.7-17.5l-16.6,19.5c16.6,14.7,38.4,23.6,62.3,23.6s52.4-11.9,69.6-30.9l-15.7-21.2"/>
          <path id="path116" class="cls-1" d="M553.9,196.8v-2.4s3.6-2.6,3.6-2.6v-.6h-3.7c0,0,0-1.9,0-1.9l9.4-.2v2.9c0,.7,0,1.2-.1,1.7-.2.5-.3.8-.6,1.1s-.6.5-.9.6c-.3.1-.7.2-1.1.2-.3,0-.7,0-.9-.1-.3-.1-.5-.2-.8-.4-.2-.2-.4-.4-.6-.6-.2-.2-.3-.5-.3-.7l-3.9,3h0ZM560.3,193.6c.4,0,.8-.1,1-.4.2-.2.3-.6.3-1.1v-1.1s-2.7,0-2.7,0v1.1c0,.4.2.8.4,1.1s.6.4,1,.4h0ZM562.6,202.7l-.5-3.6-2,.3.5,3.5-1.6.2-.5-3.5-2.3.3.5,3.8-1.7.2-.8-5.7,9.4-1.2.8,5.6-1.7.2h0ZM565.9,201.3l-1.4-2.6,1.1-.7,1.7,2.4-1.3.8ZM562.7,209.1c.2,0,.4-.1.5-.2.2-.1.3-.2.4-.4,0-.2.2-.3.2-.6s0-.5,0-.8l-.2-1-2.8.7.2.9c0,.3.2.6.3.8s.3.3.4.4.3.1.5.1.4,0,.5,0h0ZM564.6,203.9l.7,2.9c.1.5.2,1,.1,1.4,0,.4-.1.9-.3,1.2-.2.4-.4.7-.8.9-.3.3-.7.5-1.2.6-.9.2-1.7,0-2.4-.4-.7-.5-1.1-1.3-1.4-2.5l-.2-.9-3.2.8-.4-1.9,9.2-2.1h0ZM558.3,217.5c-.2-.5-.2-.9-.2-1.4s0-.9.3-1.3.5-.8.9-1.1,1-.6,1.7-.9l5.4-1.8.6,1.9-5.6,1.8c-.7.2-1.1.5-1.4.9-.3.4-.3.8-.2,1.3,0,.3.2.5.4.7s.4.3.6.3c.2,0,.5,0,.8,0,.3,0,.6,0,.8-.2l5.6-1.8.6,1.9-5.4,1.8c-.7.2-1.3.3-1.9.3s-1-.1-1.4-.3c-.4-.2-.8-.5-1-.9s-.5-.8-.7-1.3h0ZM569.3,218.9l1.1,2.4c.2.4.3.9.4,1.3s0,.8,0,1.1c0,.3-.2.6-.4.9-.2.3-.5.5-.9.6-.2.1-.5.2-.7.2-.2,0-.5,0-.7,0-.2,0-.4-.2-.6-.3-.2-.1-.4-.3-.5-.5h0c.1.4.2.7.1,1,0,.3,0,.6-.2.8s-.3.5-.5.7c-.2.2-.4.4-.7.5-.4.2-.8.3-1.2.3-.4,0-.7-.1-1.1-.3-.3-.2-.6-.4-.9-.7-.3-.3-.5-.7-.7-1.1l-1.3-2.8,8.6-3.9h0ZM565.2,225.6c.4-.2.6-.4.7-.8s0-.8-.1-1.2l-.4-.9-2.5,1.1.4.9c.2.4.5.7.8.9.3.1.7.1,1.1,0h0ZM568.6,223.6c.3-.1.5-.4.6-.7,0-.3,0-.7-.2-1.1l-.3-.6-2.1.9.3.7c.2.4.4.7.7.8.3.1.6,0,.9,0h0ZM572.7,225.6l1,1.7-6.7,3.8,1.9,3.3-1.5.9-2.9-5,8.2-4.7h0ZM576,231.1l1.1,1.6-7.7,5.4-1.1-1.6,7.7-5.4ZM575,245.1c-.6-.3-1.2-.7-1.7-1.3-.6-.7-.9-1.3-1.1-2-.2-.7-.2-1.3-.1-1.9s.3-1.2.6-1.8c.3-.5.7-1,1.1-1.4.5-.4,1.1-.8,1.7-1,.6-.2,1.3-.3,1.9-.2.6,0,1.3.2,1.9.5.6.3,1.2.7,1.6,1.3.5.6.9,1.2,1.1,1.9s.2,1.3.2,1.9-.3,1.2-.6,1.8c-.3.6-.7,1.1-1.2,1.5-.6.5-1.2.8-1.8,1-.7.2-1.3.3-2,.2l-.3,2-1.6-.3.4-2.1h0ZM575.2,238.2c-.3.3-.6.6-.8,1-.2.4-.3.8-.4,1.1s0,.8,0,1.2c.1.4.3.7.6,1.1.2.2.4.4.7.6l.3-1.9,1.6.3-.4,2c.4,0,.7,0,1.1-.2.4-.1.7-.3,1-.6.3-.3.6-.6.8-1s.3-.7.4-1.1,0-.8,0-1.2c-.1-.4-.3-.8-.6-1.1-.3-.3-.6-.6-1-.7-.4-.2-.7-.3-1.1-.3-.4,0-.8,0-1.2.2-.4.1-.8.4-1.1.7h0ZM580.5,251.3c-.4-.3-.7-.7-.9-1.1s-.3-.8-.3-1.3c0-.5,0-.9.3-1.4.2-.5.6-1,1.1-1.6l3.9-4.1,1.4,1.4-4,4.2c-.5.5-.8,1-.8,1.5s0,.9.5,1.2c.2.2.5.4.7.4s.5,0,.7,0,.5-.2.7-.3c.2-.2.4-.4.6-.6l4-4.2,1.4,1.4-3.9,4.1c-.5.5-1,.9-1.5,1.2-.5.2-.9.4-1.4.4-.4,0-.9,0-1.3-.3-.4-.2-.8-.5-1.2-.8h0ZM594.2,252.4l-2.9-2.3-1.3,1.6,2.8,2.2-1,1.3-2.8-2.2-1.4,1.8,3,2.4-1.1,1.4-4.6-3.6,5.8-7.4,4.4,3.5-1.1,1.4h0ZM599.1,253.5l1.7,1-4.7,8.2-1.7-1,4.7-8.2ZM605,259.5c.1-.3.2-.6,0-.9s-.3-.5-.6-.7c-.3-.1-.6-.2-.8-.1s-.5.2-.6.5c-.2.3-.2.6,0,.9.2.3.4.6.8,1,.7.7,1.1,1.4,1.2,2.1.1.7,0,1.3-.3,1.9-.2.3-.4.6-.6.8s-.6.4-1,.6-.8.2-1.2.1-.9-.2-1.4-.4c-.4-.2-.8-.5-1.1-.8s-.5-.6-.6-1-.2-.8-.2-1.2c0-.4.1-.9.3-1.3l1.7.9c-.2.4-.2.8-.1,1.1s.3.6.7.8c.3.2.7.2,1,.1s.5-.3.7-.6c.2-.4.2-.7,0-1-.1-.3-.4-.7-.9-1.2-.7-.7-1.1-1.4-1.2-2-.1-.6,0-1.2.3-1.8.2-.4.4-.6.7-.9.3-.2.6-.4.9-.5.3,0,.7,0,1.1,0,.4,0,.8.2,1.1.4.4.2.7.5,1,.7.3.3.4.6.6.9.1.3.2.7.1,1.1s-.1.8-.3,1.1l-1.7-.9h0ZM609,258.7l1.9.7-2.8,7.2,3.6,1.4-.6,1.6-5.4-2.1,3.4-8.8h0ZM617.8,261.8l1.8.5.7,10-2-.6v-2.3c-.1,0-3.5-1-3.5-1l-1.3,1.9-1.9-.5,6.1-8.1h0ZM615.7,267.4l2.4.7v-2.4c-.1-.3-.1-.5-.1-.8v-.7h0c-.3.4-.5.8-.8,1.2l-1.4,1.9h0ZM631.7,274.1l-1.9-.2.2-4.7c0-.2,0-.3,0-.5,0-.2,0-.4,0-.6,0-.2,0-.4,0-.5,0-.2,0-.3,0-.5h0c-.1.3-.3.6-.4,1-.1.4-.3.7-.4,1l-2,4.4-1.4-.2-.8-4.8c0-.3-.1-.6-.1-1,0-.4,0-.7-.1-1.1h-.1c0,.3-.1.6-.2,1,0,.4-.1.7-.2,1l-1.1,4.6-1.8-.2,2.4-9.2,2.2.3.8,4.6c0,.3.1.6.1.9,0,.3,0,.6.1.9h0c.1-.2.2-.5.4-.8s.3-.6.4-.8l1.9-4.2,2.2.3v9.5c-.1,0-.1,0-.1,0ZM634.3,264.8h2c0,.1-.7,9.6-.7,9.6h-2c0-.1.7-9.6.7-9.6ZM644.5,274.1c-.6.3-1.3.5-2.1.5-.9,0-1.6-.1-2.3-.4-.6-.3-1.2-.7-1.6-1.2s-.7-1-.9-1.6-.3-1.2-.3-1.8c0-.7.1-1.3.3-1.9s.6-1.1,1-1.6,1-.9,1.6-1.1,1.3-.4,2-.5c.8,0,1.5.1,2.1.4.6.3,1.1.6,1.6,1.1s.8,1,1,1.6c.2.6.4,1.2.4,1.9,0,.7-.1,1.4-.4,2s-.6,1.2-1.1,1.7l1.3,1.5-1.3,1.1-1.4-1.6h0ZM639.3,269.7c0,.5,0,.9.2,1.3.2.4.4.7.6,1,.3.3.6.5,1,.7.4.2.8.2,1.2.2.3,0,.6,0,.9-.2l-1.3-1.5,1.3-1.1,1.3,1.6c.2-.3.4-.6.5-1,.1-.4.2-.8.2-1.2,0-.5,0-.9-.2-1.3s-.4-.7-.6-1c-.3-.3-.6-.5-.9-.7-.4-.2-.8-.2-1.2-.2-.4,0-.8.1-1.2.3-.4.2-.7.4-.9.7-.3.3-.5.6-.6,1s-.2.8-.2,1.3h0ZM652.8,273.6c-.5,0-1,0-1.4,0-.4,0-.9-.2-1.2-.5-.4-.3-.7-.6-1-1.1-.3-.5-.5-1.1-.6-1.8l-1-5.6,1.9-.3,1,5.8c.1.7.4,1.2.7,1.5s.8.5,1.3.4c.3,0,.6-.1.7-.3.2-.1.3-.3.4-.5s.1-.5.1-.7c0-.3,0-.6,0-.9l-1-5.8,1.9-.3,1,5.6c.1.7.1,1.4,0,1.9,0,.5-.3,1-.5,1.4s-.6.7-1,.9c-.4.2-.9.4-1.4.5h0ZM661.8,263.4l-3.5,1,.6,2,3.4-1,.4,1.6-3.4,1,.6,2.2,3.7-1.1.5,1.6-5.6,1.6-2.6-9.1,5.4-1.6.5,1.6h0ZM668.6,259.2c.8-.4,1.5-.5,2.2-.6.7,0,1.3,0,1.9.3.6.2,1.1.5,1.5,1s.8.9,1.1,1.5c.3.6.4,1.2.4,1.8,0,.6,0,1.2-.3,1.8-.2.6-.6,1.1-1.1,1.6-.5.5-1.1.9-1.9,1.3l-2.9,1.3-3.9-8.6,3-1.3h0ZM671.7,266.2c.5-.2.9-.5,1.2-.8s.5-.6.7-1c.1-.4.2-.7.1-1.1,0-.4-.1-.8-.3-1.1-.2-.4-.4-.7-.7-1s-.6-.5-.9-.6c-.4-.1-.7-.2-1.2-.1-.4,0-.9.2-1.4.4l-1.1.5,2.4,5.4,1.1-.5h0ZM680,255.2l-3.2,1.8,1,1.8,3.1-1.7.8,1.4-3.1,1.7,1.1,2,3.3-1.9.9,1.5-5,2.9-4.7-8.2,4.9-2.8.9,1.5h0ZM696.6,252.7l-1.5,1.2-3.2-3.4c-.1-.1-.2-.2-.4-.4-.1-.1-.3-.3-.4-.4-.1-.1-.2-.3-.4-.4-.1-.1-.2-.2-.3-.4h0c.1.3.3.7.4,1s.3.7.4,1l1.8,4.5-1.1.9-4-2.8c-.3-.2-.5-.4-.8-.6-.3-.2-.6-.4-.9-.7h0c.2.3.4.6.6.9.2.3.4.6.6.8l2.5,4-1.4,1.1-4.9-8.1,1.7-1.4,3.8,2.7c.2.2.5.3.8.5s.5.4.7.5h0c-.1-.3-.2-.6-.4-.9-.1-.3-.2-.6-.3-.8l-1.7-4.4,1.7-1.3,6.8,6.7h0ZM693.1,242.8l1.3-1.4,9.3,4-1.4,1.5-2.1-.9-2.4,2.5,1,2-1.4,1.4-4.3-9.2h0ZM697.1,247.2l1.8-1.8-2.2-1c-.3-.1-.5-.2-.7-.3-.2-.1-.4-.2-.6-.3h0c.3.5.5.9.7,1.4l1.1,2.1h0ZM707,241.7c-.3.4-.6.7-1,1s-.8.4-1.2.5-.9,0-1.5-.2c-.5-.2-1.1-.5-1.7-.9l-4.5-3.5,1.2-1.6,4.6,3.6c.6.4,1.1.6,1.5.7s.9-.2,1.2-.6c.2-.3.3-.5.4-.7,0-.2,0-.5,0-.7,0-.2-.2-.4-.4-.6-.2-.2-.4-.4-.6-.6l-4.6-3.6,1.2-1.6,4.5,3.5c.6.4,1,.9,1.3,1.4s.5.9.5,1.4,0,.9-.1,1.3c-.1.4-.4.9-.7,1.3h0ZM714.3,230.5l-1.3,2-4.5.2-.3.5,3.1,2-1.1,1.7-8-5.1,1.6-2.5c.4-.6.7-1,1.1-1.3.4-.3.8-.5,1.1-.6.4-.1.7-.1,1.1,0s.7.2,1,.4c.3.2.5.4.7.6.2.2.3.5.4.8s.1.5.1.8,0,.6-.1.8l4.9-.3h0ZM707.2,229.6c-.4-.2-.7-.3-1.1-.2-.3,0-.6.3-.9.7l-.6.9,2.3,1.4.6-.9c.2-.4.3-.8.3-1.1s-.3-.6-.6-.8h0ZM706.5,224.9l.9-1.8,8.4,4.4-.9,1.8-8.4-4.4ZM710.4,220.9l-.9,2-1.6-.7,2.7-5.9,1.6.7-.9,2.1,7,3.2-.8,1.8-7-3.2h0ZM711.6,213l.6-1.8,10.1-.2-.7,1.9h-2.3l-1.1,3.3,1.8,1.4-.6,1.9-7.7-6.5h0ZM717,215.3l.8-2.4h-2.4c-.3,0-.5,0-.8,0-.2,0-.5,0-.7,0h0c.4.4.8.7,1.2,1l1.9,1.5h0ZM716.6,206.8c.1,0,.2,0,.4,0s.3,0,.5,0c.2,0,.3,0,.5,0s.3,0,.4,0l4.6.8-.3,1.7-9.3-1.6.3-1.7,4.5-1.9c.4-.2.7-.3,1-.4.3-.1.5-.2.7-.3s.4-.1.6-.2c.2,0,.3-.1.4-.1h0c-.1,0-.2,0-.4,0s-.3,0-.5,0c-.2,0-.3,0-.5,0-.1,0-.3,0-.4,0l-4.8-.8.3-1.7,9.3,1.6-.3,1.7-4,1.8c-.5.2-.9.4-1.2.5-.3.1-.6.2-.8.3-.2,0-.4.2-.6.2s-.3.1-.4.2h0c0,0,0,0,0,0ZM714.9,198.5l.3-2,9.4,1.2-.3,2-9.4-1.2ZM717.3,189.7v3.7c0,0,2,0,2,0v-3.5c0,0,1.7,0,1.7,0v3.5c0,0,2.3,0,2.3,0v-3.8c0,0,1.8,0,1.8,0v5.8c-.1,0-9.6-.2-9.6-.2v-5.6c.1,0,1.8,0,1.8,0"/>
        </g>
      </g>
      <rect class="cls-4" x="158.4" y="189.9" width="267.2" height="2"/>
      <text class="cls-6" transform="translate(166.5 237.2)"><tspan x="0" y="0">وزارة الثقافة والفنون والاتصال </tspan><tspan x="40.4" y="30.8">والعلاقات مع البرلمان</tspan></text>
      <g>
        <path id="path14-2" data-name="path14" class="cls-5" d="M145.7,134.5l1.5-1.8c.2-.2.5-.3.7,0l1.8,1.5s0,0,.1.1l1.2-1.5c.2-.2.5-.3.7,0l1.8,1.5c.2.2.3.5,0,.7l-1.5,1.8c-.2.2-.5.3-.7,0l-1.8-1.5s0,0-.1-.1l-1.2,1.5c-.2.2-.5.3-.7,0l-1.8-1.5c-.2-.2-.3-.5,0-.7"/>
        <path id="path16-2" data-name="path16" class="cls-5" d="M130.8,116.9l1.3-2c.2-.2.5-.3.7-.2l2,1.3s0,0,.1.1l1.1-1.7c.2-.2.5-.3.7-.2l2,1.3c.2.2.3.5.2.7l-1.3,2c-.2.2-.5.3-.7.2l-2-1.3s0,0-.1-.1l-1.1,1.7c-.2.2-.5.3-.7.2l-2-1.3c-.2-.2-.3-.5-.2-.7"/>
        <path id="path18-2" data-name="path18" class="cls-5" d="M278.1,127.5c0-.3.2-.8,1-1.5.3-.3,1.1-.1,1.5.8.6,1.8-2.3,1.1-2.4.7ZM278.1,123.1c2.3-2.5,3.3.8,5,2.1.3.2.6.4,1,.6-.7,2.1-1.8,6-4.5,5.7-2.5-.3-2.9-2.9-4.6-3.1-2.1,1.2-3.3,2.5-6.5-.3-2.7,2.9-9.3,4.6-12.6-.4-2.8,3.3-7,4.1-7.6,0-.6-4.5,5.8-5.6,6.6-5.5.1-1.1.8-1.9,1.3-2.1,1-.3,2.1.6,2,.9-.5,2.5,0,4.1.9,5,1.4,1.5,5.3,1.4,6.5.5.7-.4,1.1-1.3,2.1-2.4,1.2-1.3,2.2-1.9,2.5-.4.1.5.3.9.5,1.2,2.4,2.4,5.8.3,7.6-1.7h0ZM254.5,125.6c-1.9,2-4,1.9-3.5.7.6-1,2.6-1.9,3.3-1.6l.2,1"/>
        <path id="path20-2" data-name="path20" class="cls-5" d="M160,125.9c.2-.4.2-1.5,0-1.5-2.3-.2-1.7-1.1-.5-2.9.2-.2,1.2-1.5,2.4-2.3,1.3-.9,2.9-.3,2.7,1.4-.4,3.8-.8,7.3-4.5,9.7-2.7,1.8-6.9,1.1-9.1-1.4-.6.5-1.1.9-1.6,1.2h0c-.3.2-.7.4-1.1.6h0s0,0,0,0c-.1,0-.3.1-.4.2h0c0,0-.1,0-.2,0-3,1.1-6.5-.5-7.8-3.1-3.2,3.1-7.4,3.7-7.6-.6-.1-4.5,6.4-5.2,7.1-5,.2-1.1,1-1.9,1.6-2,1-.3,2,.8,2,1-.8,2.4-.5,4,.3,5,1.2,1.6,3.6,1.6,4.9.7.8-.3,1.2-1.2,2.3-2.3,1.3-1.2,2.4-1.7,2.6-.2,0,.5.2.9.4,1.2,1.2,2,5,2.5,6.5.3h0ZM138.9,125.7c-2.1,1.8-4.2,1.6-3.5.4.7-.9,2.8-1.7,3.5-1.4v1"/>
        <path id="path22-2" data-name="path22" class="cls-5" d="M325.2,133.7c0-.5,0-.8.3-.9.8-.3,1.4-.7,2-1,1.5-.9,3.4-2.3,5.1-3.9-.4-2.8-1.8-5.6-3.9-7.8l-.9,1.2c0,.1-3-1.8-3.5-2.9-.6-2.3,2.7-5.5,4-4.2,2.4,2.2,5.8,7.5,6,11.8,2-2.7,3-6,1.1-9.9-.9-1.9,2.3-4.1,3-3.6,1.5,1.3,1.4,4.6,2.1,6.7,0,.3-.6-.2-1.8-1.4,0,0,.4,2.5.1,5.4-.4,3.2-2.1,6.9-4.9,8.7-2.1,1.4-6.2,1.7-8.7,1.8"/>
        <path id="path24-2" data-name="path24" class="cls-5" d="M452.1,117.8l2.4-4.1,1.6-.2c.5,2.8,1.3,5.4,2.9,7.7-1.1.2-2,0-2.7-.2,1.4,4.9.5,10.4-1.9,13.5l-.7-1.4c.8-4.6,0-10.4-1.6-15.3"/>
        <path id="path26-2" data-name="path26" class="cls-5" d="M342.9,117.8l2.4-4.1,1.6-.2c.5,2.8,1.3,5.4,2.9,7.7-1.1.2-2,0-2.7-.2,1.4,4.9.5,10.4-1.9,13.5l-.7-1.4c.8-4.6,0-10.4-1.6-15.3"/>
        <path id="path28-2" data-name="path28" class="cls-5" d="M237.9,117.8l2.4-4.1,1.6-.2c.5,2.8,1.3,5.4,2.9,7.7-1.1.2-2,0-2.7-.2,1.4,4.9.5,10.4-1.9,13.5l-.7-1.4c.8-4.6,0-10.4-1.6-15.3"/>
        <path id="path30-2" data-name="path30" class="cls-5" d="M401.4,126.4c0,.3-4.9.4-1.7-1.9.4-.3,1.6-.1,1.7,1.9ZM407.8,125.9c2.2-9.1,9.8-10.7,7-.3,2.7,1.2,4.5.8,6.8.2,1.6-.5,2.5-1.4,3.2-2,2.4-2.3,3.2.9,4.8,2.1,2,1.5,7.5,2.3,11.1-.2-1.6-2.4-4.2-2.3-7.8-.5-.6-.8-1.3-1.6-1.9-2.4,2.6-2.2,4.3-2.9,6.8-3.1,3.3-.3,8.8,3.6,8.3-1.8-1.1-.4-1.5-1-1.5-2.3.8-1,1.7-1.9,2.5-2.9.4.2.9.4,1.3.7-.1,1.8.6,3.4,1.6,4.8,0,0-1.1.5-2.2.2-.4,5.8-3.7,3.1-5.5,5.6,1.5.9,3.4,1.2,5.6,1.2.1,1.5.3,3.1.4,4.7-5.3-2-7.5-.8-9.7.2-2.2,1-4.3,1.8-9.1-1.2-1.1,2.3-2.5,3.5-4,3.3-2.5-.4-2.7-3-4.4-3.3-.9.5-3.9,1.8-6.5.8.9,6.4-7.6,6.5-8.3.2v-.2c-.4,0-1,.2-1.8.5-.6,3-2,4.5-4,5.1-2.5.7-5.5,0-8.8-.5,0-.5,0-.7.4-.8,2.5-.4,4.5-.7,6.1-1.4,1.1-.5,1.9-1.3,2.6-2.4-1.4.1-3.1-.2-4.2-1.9-.8-2.7-.3-4.7.5-6,.9-1.3,2.1-1.9,2.8-1.8,2.2.4,3.9,1.9,4.9,5.6,1-.2,1.4.4,3-.1h0ZM424.4,128.1c0-.3.2-.8,1.1-1.5.3-.3,1.1,0,1.4.8.5,1.7-2.4,1-2.5.6ZM410.2,125.4,408.2,129.1c4.4-3.7,6.6,4.7,0,0"/>
        <path id="path32-2" data-name="path32" class="cls-5" d="M387.5,128.4c0-.4,0-1.4-.4-1.5-2.5-.6-2.5-1.2-1.1-2.8.2-.2,1.7-2.2,2.9-3.2,1.6-1.3,2.4-1.3,2.6.5.4,3.8,0,10.1-3.1,13.1-2.1,2-5.3,2.4-8.8,2.3,0-.5,0-.8.3-.9,4.2-1.6,6.3-3.2,7.6-7.6"/>
        <path id="path34-2" data-name="path34" class="cls-5" d="M200.1,128.4c0-.4,0-1.4-.4-1.5-2.5-.6-2.5-1.2-1.1-2.8.2-.2,1.7-2.2,2.9-3.2,1.6-1.3,2.4-1.3,2.6.5.4,3.8,0,10.1-3.1,13.1-2.1,2-5.3,2.4-8.8,2.3,0-.5,0-.8.3-.9,4.2-1.6,6.3-3.2,7.6-7.6"/>
        <path id="path36-2" data-name="path36" class="cls-5" d="M378,125.7c.3-.3.6-1.4.3-1.5-2.2-.7-1.4-1.5.2-3,.2-.2,1.5-1.1,2.9-1.7,1.5-.6,2.9.3,2.3,2-1.3,3.6-2.4,6.9-6.6,8.4-8.1,2.9-11.8,1.3-13.4.3-1-.6-1.8-1.5-2.3-2.5-3.2,3-7.5,3.6-7.6-.7,0-4.5,6.4-5.1,7.2-4.9.2-1.1,1-1.8,1.6-2,1.1-.2,2,.8,1.9,1-1.1,3.3-.2,5.1,1.2,5.9,1.4.8,5.5,2,12.3-1.3h0ZM360.4,125.6c-2.1,1.8-4.2,1.6-3.5.4.7-.9,2.9-1.6,3.5-1.3v1"/>
        <path id="path38-2" data-name="path38" class="cls-5" d="M437.7,133.8l1.5-2.1c.2-.3.5-.3.8-.1l2.2,1.6c.3.2.3.6.1.8l-1.5,2.1c-.2.3-.5.3-.8.1l-2.2-1.6c-.3-.2-.3-.6-.1-.8"/>
        <path id="path40-2" data-name="path40" class="cls-5" d="M159.4,113.5l2,1.6c.2.2.3.6,0,.8l-1.8,2.1c-.2.2-.6.3-.8,0l-2-1.6c-.2-.2-.3-.6,0-.8l1.8-2.1c.2-.2.6-.3.8,0"/>
        <path id="path42-2" data-name="path42" class="cls-5" d="M353.1,116.8l1.2-2.3c.1-.3.5-.4.8-.2l2.3,1.2c0,0,.1,0,.1.1l1-1.9c.1-.3.5-.4.8-.2l2.3,1.2c.3.1.4.5.2.8l-1.2,2.3c-.1.3-.5.4-.8.2l-2.3-1.2c0,0-.1,0-.1-.1l-1,1.9c-.1.3-.5.4-.8.2l-2.3-1.2c-.3-.1-.4-.5-.2-.8"/>
        <path id="path44-2" data-name="path44" class="cls-5" d="M372,135.4l1-2.1c.1-.3.4-.4.7-.2l2.1,1c0,0,0,0,.1,0l.9-1.8c.1-.3.4-.4.7-.2l2.1,1c.3.1.4.4.2.7l-1,2.1c-.1.3-.4.4-.7.2l-2.1-1c0,0,0,0-.1,0l-.9,1.8c-.1.3-.4.4-.7.2l-2.1-1c-.3-.1-.4-.4-.2-.7"/>
        <path id="path46-2" data-name="path46" class="cls-5" d="M264.2,133.9l1.4-1.8c.2-.2.5-.3.7,0l1.9,1.5s0,0,.1.1l1.2-1.5c.2-.2.5-.3.7,0l1.9,1.5c.2.2.3.5.1.7l-1.4,1.8c-.2.2-.5.3-.7,0l-1.9-1.5s0,0-.1-.1l-1.2,1.5c-.2.2-.5.3-.7,0l-1.9-1.5c-.2-.2-.3-.5-.1-.7"/>
        <path id="path48-2" data-name="path48" class="cls-5" d="M248,117.2l1.1-2c.1-.3.5-.3.7-.2l2.1,1.2s0,0,.1.1l.9-1.7c.1-.3.5-.3.7-.2l2.1,1.2c.3.2.4.5.2.7l-1.1,2c-.1.3-.5.3-.7.2l-2.1-1.2s0,0-.1-.1l-.9,1.7c-.1.3-.5.3-.7.2l-2.1-1.2c-.3-.2-.4-.5-.2-.7"/>
        <path id="path50-2" data-name="path50" class="cls-5" d="M261,113.8c-.2.1-1,1.4,0,1.7,1.2.7,11.6-.5,14.8-3.2,1.9-1.7.2-.9-1.4-.3-2.4.8-9.4,2-13.4,1.8"/>
        <path id="path52-2" data-name="path52" class="cls-5" d="M431.4,115.5c-.2.1-1,1.4,0,1.7,2.1.2,5,0,7.1-2,1.9-1.7.2-1-1.4-.3-2,.8-3.8.7-5.7.6"/>
        <path id="path54-2" data-name="path54" class="cls-5" d="M273.9,115.9c-.2-.2-.4-.2-.5,0-.7.9-1.2,1.9-1.7,2-.2,0-.8.4-1.1,0,0,0-.2-.6-.3-.9-.4-.8-1.1.2-1.3.6-.3.6-.8.9-1.1,1-1.3.3-1.7-.4-1.4-1.4.2-.8-.8-1.1-1.3,1.2-.2.7-.4,1.7.3,2.2,1.5,1.1,2.9-.2,3.4-.9,0-.1.3,0,.4.1,1,.8,1.9.6,2.6.1,1.6-1.2,2.3-4.5,2.1-4.1"/>
        <path id="path56-2" data-name="path56" class="cls-5" d="M376.6,115.2c-.2-.1-.4-.1-.5,0-.6,1-1,2-1.5,2.2-.2,0-.8.5-1.1.2,0,0-.2-.5-.4-.8-.4-.8-1,.3-1.2.7-.2.6-.7,1-1,1.1-1.3.5-1.7-.2-1.5-1.2,0-.8-.9-1-1.2,1.4,0,.7-.2,1.8.5,2.2,1.6.9,2.9-.6,3.3-1.4,0-.1.3,0,.5,0,1.1.6,1.9.4,2.6-.2,1.5-1.4,1.9-4.8,1.7-4.3"/>
        <path id="path58-2" data-name="path58" class="cls-5" d="M154.3,115.4c-.1-.2-.3-.2-.5,0-.8.9-1.4,1.8-1.9,1.9-.2,0-.9.3-1.1,0,0-.1-.1-.6-.2-.9-.3-.9-1.1,0-1.3.5-.3.5-.9.8-1.2.9-1.4.2-1.6-.5-1.3-1.5.3-.7-.7-1.1-1.5,1.1-.2.7-.6,1.7,0,2.2,1.4,1.2,3,0,3.5-.7,0-.1.3,0,.4.2.9.8,1.8.8,2.5.3,1.7-1.1,2.8-4.3,2.5-3.9"/>
        <path id="path60-2" data-name="path60" class="cls-5" d="M333.9,136.1c.2.3.7.5.6.5-.4.1-1,.4-1.2.8-.1.3.2.8.4.7,1.3-.3,2.8-1.4,4.5-1.1,0-.6,1-1.3.5-1.5-.5-.2-1.7.3-2.9-.5-.7-.5-.5-2,1.1-1,1.5.8,1.6-1.1,1.5-1.2-.4-.6-1.7-.7-2.8-.4-1.6.4-3,2.3-1.9,3.7"/>
        <path id="path62-2" data-name="path62" class="cls-5" d="M421.5,115.4c-.9.4-.3,0-1.3,1.2-.2.3-.9,1.4-.6,1.6.5.2,1-.9,2.3-.7,1.2.1-2.5,2-2.6,2.3-.2.6,3.9-.4,5.3-3.8,0-1.2-2.5-.5-3.2-.5"/>
        <path id="path64-2" data-name="path64" class="cls-5" d="M393.8,120.1c.2.7,1.2,1.6,1.8,1.8.4-.3.7-2.3.7-2.7-.6-.5-.8-.5-1.3-1.2-.5-.9.4-1.2-.5-1.6-.7.7-1,2.7-.7,3.7"/>
        <path id="path66-2" data-name="path66" class="cls-5" d="M280.1,117.1c-.1.7.3,2,.8,2.5.5,0,1.7-1.7,1.9-2-.3-.7-.5-.8-.6-1.7,0-1.1.9-.8.3-1.7-1,.2-2.2,1.9-2.4,2.9"/>
        <path id="path68-2" data-name="path68" class="cls-5" d="M161.1,134.4c-.2.7.3,2,.7,2.5.5,0,1.8-1.7,1.9-2.1-.3-.7-.5-.8-.5-1.7,0-1.1.9-.9.3-1.7-1,.3-2.2,1.9-2.4,2.9"/>
        <path id="path70-2" data-name="path70" class="cls-5" d="M297.6,127.9c.7,1.8,2.2,3,4.1,3.3,1.8.3,4-.4,6.1-2.1,1.3,2.9,5,1.8,7.1.2,2.8,1.7,5.4.9,6.9-.8,1.6-1.8,2.1-4.6.9-7.2-.8.7-1.6,1.3-2.5,2,1.2,4.5-4.7,4.4-2.9.3.1-.7-2-.3-2.2.6-.2.3-.4.7-.6,1-1.5,2.6-4.2,2.3-4.3-.1,0-.6.2-1.3.4-1.8.1-.7-1.8-.3-2,.5-2,4.1-9.6,5.5-9.6-1.8,0-1.1,0-2.4,0-3.8,0-1.5-.1-3.1-.5-4.2-1.1-3.3-2.1-.5-3,.2-.2.1-.4.8,0,1.3.5,1,.7,1.7.9,2.3.4,1.5.3,3.1,0,4.5-.3,1.4-.9,2.8-1.8,3.9-.1-2.2-1-4.6-2.1-6.9-1.1-2.2-2.5-4.2-3.6-5.4-1.3-1.3-4.3,1.8-3.8,4.1.4,1.1,3.2,3.1,3.3,3,.3-.4.6-.7.8-1.1,1,1.2,1.8,2.5,2.4,3.9.6,1.4,1,2.8,1.2,4.2-1.6,1.5-3.4,2.7-4.8,3.5-.6.3-1.2.6-1.9.9-.3.1-.3.4-.2.9,2.3,0,6.2,0,8.2-1.3,1.5-.9,2.7-2.4,3.5-4.1"/>
        <path id="path72-2" data-name="path72" class="cls-5" d="M315.5,116.3c4.4-.4-2.2,1.6-1.9,3,0,.3.3.4.6.3,1.8-.4,5-2.3,7.2-5.7,0-.4-.4-.5-.9-.5-.3,0-3.2-.4-5.1.5-.4.2-.8.6-1.5,2.1-1.1,2.5.8.4,1.6.3"/>
        <path id="path74-2" data-name="path74" class="cls-5" d="M303.9,115.4c1.9,1.1,1,4.5,1.8,4.9.7.3.8-2,.5-3.9s-1.1-3.6-2.1-2.1c-.2.2-.5.7-.2,1.1"/>
        <path id="path76-2" data-name="path76" class="cls-5" d="M191,126.7c.2-.4.3-1.4,0-1.4-2.3-.3-1.7-1.1-.3-2.8.2-.2,1.3-1.4,2.6-2.1,1.4-.9,3-.2,2.7,1.4-.3,1.8-.6,3.5-1.4,5.1-.7,1.6-1.9,2.9-3.9,4-3.1,1.7-6.9.5-9-2-.7.4-1.3.7-1.9,1,0,0,0,0,0,0-3.7,1.8-6.8,2.2-8.9,1.1-2.1-1.1-3-3.6-2.5-7.7.1-1.1,0-1.7-.3-2.8-.1-.5-.4-1.1-.9-2-.4-.4,0-1.1.1-1.3,1-.9,2.1-3.8,3.2-.8.4,1.1.7,2.1.7,3.6,0,1.6,0,2.3-.1,3.9.3,3,2.4,3.8,4.7,3.6,2.3-.2,4.9-1.5,6.3-2.6,1.4-1.2,2.7-1.4,2.7,0,0,.5,0,.9.2,1.2,1.3,1.8,4.6,2.4,6.1.6"/>
        <path id="path78-2" data-name="path78" class="cls-5" d="M183.2,134.5c.6-.6,1.1-1.2,1.7-1.9.2-.2.6-.3.8,0,.6.5,1.3,1,1.9,1.4,0,0,0,0,.1.1.5-.5.9-1,1.4-1.6.2-.2.6-.3.8,0,.6.5,1.3,1,1.9,1.4.2.2.3.5,0,.7-.6.6-1.1,1.2-1.7,1.9-.2.2-.6.3-.8,0-.6-.5-1.3-1-1.9-1.4,0,0,0,0-.1-.1-.5.5-1,1-1.4,1.6-.2.2-.6.3-.8,0-.6-.5-1.3-1-1.9-1.4-.2-.2-.3-.5,0-.7"/>
        <path id="path80-2" data-name="path80" class="cls-5" d="M178.1,118.3c.5-.7,1-1.3,1.5-2,.2-.2.5-.3.8-.2.6.4,1.3.9,1.9,1.3,0,0,0,0,.1.1.4-.6.8-1.1,1.2-1.7.2-.2.5-.3.8-.2.6.4,1.3.9,1.9,1.3.2.2.3.5.1.7-.5.7-1,1.3-1.4,2-.2.2-.5.3-.8.2-.6-.4-1.3-.9-1.9-1.3,0,0,0,0-.1-.1-.4.6-.8,1.1-1.2,1.7-.2.2-.5.3-.8.2-.6-.4-1.3-.9-1.9-1.3-.2-.2-.3-.5,0-.7"/>
        <path id="path82-2" data-name="path82" class="cls-5" d="M206.1,117.5c-.1.7.4,2,.8,2.4.5-.1,1.7-1.8,1.9-2.1-.3-.7-.6-.8-.6-1.6,0-1.1.9-.9.2-1.7-1,.3-2.1,2-2.3,3"/>
        <path id="path84-2" data-name="path84" class="cls-5" d="M173.7,117.2c1.7,1.2.2,4.3,1,4.7,1.3.6,2.1-8.4-.5-5.7-.2.2-.6.7-.4,1.1"/>
        <path id="path86-2" data-name="path86" class="cls-5" d="M213.1,126.4c0,.3-4.8.4-1.7-1.9.4-.3,1.6-.1,1.7,1.9ZM221.5,127.9c0-.3.1-.8,1-1.7.3-.3,1.2-.2,1.6.7.8,1.8-2.4,1.4-2.6,1h0ZM231.4,116.2c-.5-2.1,1.7-3.8,2.5-3.3.9.7,1.5,1.8,2,3,.4,1.2.7,2.5,1,3.6.1.3-.7-.3-2-1.5,0,0,.5,2.4,0,5.2-.3,1.4-.3,3.3-.9,4.5-1.1,1.9-3.6,2.7-6.9,1.6-.2,0-.3-.1-.5-.2-.8,1.7-1.9,2.6-3.2,2.6-2.8,0-3.4-2.8-5.3-3.1-.3.2-.9.8-2,1.3-1,0-2.1,0-3.1-.2-1.4.3-3.5,0-4.6-1.8-.8-2.7-.3-4.7.5-6,.9-1.3,2.1-1.9,2.8-1.8,2.2.4,3.9,1.9,4.9,5.6.7-.1,1.4-.3,1.7-.4,1.7-.7,2.6-1.7,3.2-2.4,2.3-2.7,3.5.6,5.3,1.7,1.3.8,3.6,1.5,5,.5.3-.2.4-.4.4-.8,0-1.2.1-2.1,0-3.3,0-1.2-.2-2.8-.8-5.2"/>
        <path id="path88-2" data-name="path88" class="cls-5" d="M203.4,134.8c3.3.6,6.3,1.2,8.8.5,2.5-.7,4.1-2.9,4.3-7.4-1,.1-2.1.2-3.1.3-.7,2.3-1.8,3.7-3.4,4.4-1.6.8-3.6,1-6.1,1.4-.3,0-.4.3-.4.8"/>
        <path id="path90-2" data-name="path90" class="cls-5" d="M225.8,117.6c.3.7,1.5,1.6,2.2,1.8.3-.3.4-2.4.3-2.9-.7-.5-1-.4-1.6-1.2-.8-1,.1-1.3-.9-1.6-.6.8-.4,2.9,0,3.9"/>
        <path id="path92-2" data-name="path92" class="cls-4" d="M218.9,120.3c-.9.4-1.9.4-2.8.3-.6,0,3.8-2.3,4.1-3.5-1.8-.1-2.2-1.9-1.5-3.1.9-1.6,3-1.2,3.2.9.2,2.5-.7,4.3-2.9,5.4ZM219.7,114.7c-.2.2-.1.5.1.8.2.3.6.3.8.2.2-.2.1-.5-.1-.8s-.6-.3-.8-.2"/>
        <path id="path94-2" data-name="path94" class="cls-4" d="M234.4,154.2c.2,1.1.2,2.4,0,3.8-.2,1-.6,2-1.2,2.9-.8,1.2-1.8,2-3.1,2.3-1.3.3-2.5.2-3.6-.4-1.3-.7-1.8-2.1-1.8-3.9,0-1.4.3-2.6.9-3.8.2-.4.4-.7.6-.8.1,0,.3,0,.4,0,0,0,.1.1.1.2-1,2-1.2,3.7-.6,5.1.4,1.1,1.5,1.5,3.3,1.4,1.8-.1,3-1,3.8-2.6.2-.2.2-1,0-2.5v-7.2c-.4-.9-.6-1.9-.7-2.9l1-1.6c.4,1.2,1,2.3,1.9,3.2-.2.8-.6,1.5-1,2.3v4.7ZM243.4,152.5l.8,2.7c.3.6.8,1,1.4,1h.5v2.1h-.5c-.8,0-1.6-.5-2.3-1.5-.3-.5-.8-2.6-1.8-6.2l1.2-1.7c.5,1.7.7,2.9.7,3.6ZM243.3,154.4c.1,1.1-.1,2.2-.7,3-.4.6-1.3.9-2.7,1-1.5,0-2.3-.3-2.4-1,0-.1,0-.5.1-1,.1-.7.2-1.1.2-1.3.4.8,1.2,1.2,2.4,1.1,1.3-.2,2.4-.8,3.1-1.8h0ZM245.7,158.3v-2.1h.8c.4,0,.8,0,1.3-.1.4,0,.6-.1.6-.2,0,0-.1-.2-.4-.4-.3-.3-.6-.5-.8-.8,0,0-.2-.2-.2-.3-.3-.4-.4-.8-.4-1.3,0,0,0-.6.2-1.4.2-1.2,1.4-2.2,3.7-2.8.6-.2,1.3,0,2.1.4.2.1.5.3.9.6.3.2.6.4.7.5.2.1.4.3.5.6.1.3-.2.3-.8,0-.3-.1-1.1-.2-2.1,0-1.1,0-1.9.2-2.2.4-.5.2-.8.5-.9.6-.3.4-.2.7.2,1.2.2.2.7.6,1.6,1.2,1,.7,1.6,1,1.9.9,3.9-.8,5.9-1.3,5.8-1.6,0,.2,0,.6-.3,1.1-.3.5-.6.8-1,.9-5.1,1.6-8.4,2.4-9.7,2.5h-1.3ZM280,155.5c-.2-.4-.8-.5-1.7-.3-.9.5-.6,1,.9,1.4.6,0,1.5,0,2.7,0l-.4,1.4c-1.7,0-3.2.4-4.3,1.3l-.4-.4c.2-.4.5-.8,1-1.1-.7-.2-1.2-.5-1.4-1-.2-.6-.1-1.2.3-1.9.5-.7,1.2-1.1,2.2-1.2.9-.1,1.6.1,2,.7l-.9,1.1ZM285.1,143.9c0,1.1,0,3,0,5.7,0,2.5,0,4.1,0,4.8,0,.3.2.6.3.8.3.6.9.9,1.7.9h.6v2.1h-.6c-.8,0-1.3-.1-1.6-.3-.7-.4-1.2-1.2-1.4-2.5,0-.5,0-2.1,0-4.5,0-2.5,0-4.1-.1-4.9l1.1-2.1ZM301.8,154c.3,0,.3.3,0,.9-.3.5-.6.8-.8.9-.2,0-.5.1-1.1.1-1.7,0-3.2,0-4.5.3.1,0-.8.3-2.9,1-1.7.6-3.1,1-4,1.1h-1.3v-2.1h1.3c2.3-.2,4.3-.7,6.1-1.5-.5-.4-1.2-.7-2.1-1-.8-.2-1.7-.3-2.7-.2-1.1.1-1.6.2-1.5.3-.2-.2-.3-.4-.2-.8.1-.3.4-.6.8-.9.6-.4,1.1-.6,1.4-.6,1,0,1.8,0,2.6.3-.1,0,.7.3,2.3,1,.7.3,2.8.7,6.4,1.1h0ZM293.5,147.7l-1.5,1.7-1.7-1.5,1.5-1.7,1.7,1.5ZM305.5,154.5c0,.8,0,1.5,0,2.3,0,.7,0,1-.1.9.3.1.6-.3.9-1.4.4-1.3.5-2.7.4-4.3l-.5-5.8c0-.1,0-.3,0-.5,0-.3,0-.5,0-.7,0-.6-.1-.8-.4-.8-.5.9-.8,1.5-.9,2,0,.1,0,.6,0,1.5l.4,6.8ZM304.5,160.9c.2.2.3.3.4.3-.4.2-.6.4-.7.6,0,.1,0,.2,0,.3,0,.1.2.1.2.1.2,0,.4-.1.6-.3.4-.2.6-.3.7-.3.6-.3,1.1-.4,1.5-.4,0-.7,0-1,.2-1,0,0-.3,0-.7,0-.4,0-.8,0-1.1-.2-.3-.2-.4-.4-.3-.6.1-.3.4-.3.9,0,.4.2.7,0,.8-.2.1-.3.1-.5,0-.6-.3-.3-.9-.4-1.8,0-.5.2-.9.5-1.1,1.1-.3.6-.2,1,.2,1.4h0ZM339,146.7l-1.5,1.7-1.7-1.5,1.5-1.7,1.7,1.5ZM328.5,156.7c-.8-.4-1.4-.8-1.7-1.2-.1-.2-.2-.5-.3-1,0-.3,0-.4,0-.5,0-.8.1-1.3.1-1.6,0-.4-.2-.4-.4,0-.4.5-.6,1.2-.7,2.3,0,1.1,0,2,.5,2.8.4.7,1.4,1.2,2.9,1.5,1.4.3,3,.4,4.8.3,1.8-.1,3.5-.4,4.9-1,1.5-.6,2.5-1.3,3-2.2.6-1.1.7-2.2.5-3.5-.4-2-1.1-3.2-2.3-3.7-.3-.1-.6,0-.9.2-.2.1-.6.5-1.2,1-.3.3-.5.8-.6,1.7-.1.8,0,1.3,0,1.6.4.7,1,1,1.7,1.1.6,0,1.2-.2,2-.7.2.3.2.6.2.9-.3,1.2-2.2,2-5.8,2.4-3.3.3-5.5.2-6.7-.4h0ZM338.3,152.2c-.2-.2,0-.5.2-.8.3-.3.6-.4.8-.2.3.2.6.5.9.9.2.3.3.6.3.7-1.3,0-2-.2-2.2-.5h0ZM352.4,158.3h-.6c-.5,0-1.1-.2-1.6-.4-.4-.2-.7-.3-.6-.3-.6,2.2-1.9,4.1-4.1,5.6-.7.5-2,.6-4.1.3-.7-.1-1.4-.3-1.9-.4-.5-.2-.7-.3-.6-.4.3,0,.6-.1.7-.1,1.6,0,3.1-.4,4.6-1.1,1.3-.6,2.4-1.5,3.4-2.6.9-1,1.2-1.8.9-2.3-.8-1.3-1.2-1.9-1.3-1.9-.2-.3-.2-.7,0-1.1,0-.1.1-.3.2-.5,0-.2.1-.3.1-.4.2-.6.4-.6.8-.1.1.1.2.4.4.7.2.3.3.5.4.6.9,1.2,1.6,1.9,2.2,2.2.2,0,.5.1.7.1h.4v2.1ZM359.4,150l1.3-1.5,1.7,1.5-1.5,1.7-1.6-1.4-1.3,1.5-1.7-1.5,1.5-1.7,1.6,1.4ZM360.8,147.3l-1.5,1.7-1.7-1.5,1.5-1.7,1.7,1.5ZM361.3,158.3c-.4,0-.8-.2-1.3-.5-.2-.2-.4-.4-.5-.6-.2.2-.4.4-.5.5,0,0-.1.1-.2.2-.4.3-.9.5-1.5.5s-1.1-.2-1.5-.5c0,0-.1-.1-.2-.2-.2-.2-.5-.4-.7-.7-.5.6-1,1-1.5,1.1-.3,0-.6.1-1,.2h-.3v-2.1h.7c.7,0,1.2-.2,1.5-.4.3-.3.6-.7.6-1.3l1.1-.6c0,.8-.2,1.4-.2,1.8.4.3.9.4,1.7.5h.4c.6,0,1-.1,1.2-.3.3-.3.6-.7.6-1.3l1.1-.6c0,.8-.2,1.4-.2,1.8.5.4,1,.6,1.5.5.5,0,.9-.2,1.4-.4.5-.2.8-.5.8-.9-.3-.8-.7-1.4-1.1-1.6,0,0,0-.2,0-.4,0-.3.1-.5.3-.7.3-.7.7-.8,1-.4.2.5.3.7.3.8.3,1,.5,1.7.5,2.1,0,.8-.3,1.6-.9,2.3-.5.7-1,1.1-1.6,1.2-.5.1-1,.2-1.4,0h0ZM263.7,156.5v-2.2h6.9v2.2h-6.9ZM313,156.5v-2.2h6.9v2.2h-6.9"/>
      </g>
    </g>
  </g>
</svg>