<?xml version="1.0" encoding="UTF-8"?>
<svg width="84" height="84" viewBox="0 0 256 256" fill="none" xmlns="http://www.w3.org/2000/svg">
    <g transform="translate(1.41 1.41) scale(2.81 2.81)">
        <path
            d="M 54.495 57.206 l -8.787 -8.787 c -0.092 -0.093 -0.203 -0.166 -0.326 -0.217 c -0.244 -0.101 -0.52 -0.101 -0.764 0 c -0.123 0.051 -0.233 0.124 -0.326 0.217 l -8.788 8.787 c -0.391 0.391 -0.391 1.023 0 1.414 s 1.023 0.391 1.414 0 L 44 51.539 v 27.445 c 0 0.553 0.448 1 1 1 s 1 -0.447 1 -1 V 51.539 l 7.081 7.081 c 0.195 0.195 0.451 0.293 0.707 0.293 s 0.512 -0.098 0.707 -0.293 C 54.886 58.229 54.886 57.597 54.495 57.206 z"
            fill="currentColor" />
        <path
            d="M 71.078 70.094 H 57.29 c -0.553 0 -1 -0.447 -1 -1 s 0.447 -1 1 -1 h 13.788 C 80.409 68.094 88 60.502 88 51.171 c 0 -9.331 -7.591 -16.922 -16.922 -16.922 h -1.359 c -0.544 0 -0.988 -0.435 -1 -0.978 c -0.257 -11.72 -9.997 -21.255 -21.711 -21.255 h -4.015 c -11.714 0 -21.455 9.535 -21.711 21.255 c -0.012 0.543 -0.456 0.978 -1 0.978 h -1.359 C 9.591 34.249 2 41.84 2 51.171 c 0 9.331 7.591 16.923 16.922 16.923 H 32.71 c 0.552 0 1 0.447 1 1 s -0.448 1 -1 1 H 18.922 C 8.489 70.094 0 61.605 0 51.171 c 0 -10.434 8.489 -18.922 18.922 -18.922 h 0.401 c 0.785 -12.348 11.203 -22.233 23.669 -22.233 h 4.015 c 12.466 0 22.884 9.886 23.669 22.233 h 0.401 C 81.512 32.249 90 40.737 90 51.171 C 90 61.605 81.512 70.094 71.078 70.094 z"
            fill="currentColor" />
    </g>
</svg>